<?xml version="1.0" encoding="utf-8"?>
<!-- Generator: Adobe Illustrator 26.0.1, SVG Export Plug-In . SVG Version: 6.00 Build 0)  -->
<svg version="1.1" id="Layer_1" xmlns="http://www.w3.org/2000/svg" xmlns:xlink="http://www.w3.org/1999/xlink" x="0px" y="0px"
	 viewBox="0 0 48 48" style="enable-background:new 0 0 48 48;" xml:space="preserve">
<style type="text/css">
	.st0{fill:#AC6AFF;}
</style>
<path class="st0" d="M12,0h24c6.6,0,12,5.4,12,12v24c0,6.6-5.4,12-12,12H12C5.4,48,0,42.6,0,36V12C0,5.4,5.4,0,12,0z"/>
<rect x="11.9" y="37.1" width="0.8" height="0.8"/>
<rect x="7.1" y="36.3" width="0.8" height="0.8"/>
<rect x="16.8" y="35.1" width="0.8" height="0.8"/>
<rect x="30" y="35.1" width="0.8" height="0.8"/>
<rect x="36.1" y="35.9" width="0.8" height="0.8"/>
<rect x="39.3" y="37.5" width="0.8" height="0.8"/>
<path d="M42.5,39.9L35,39.1l-1.1,0.7c0,0,0,0,0,0L33,40.2l-0.4-0.7l0.8-0.4l0.6-0.4l-1.7-0.8h-2.6l-1.5,1.5
	c-0.1,0.1-0.2,0.1-0.3,0.1h-0.8v-0.8h0.6l1.2-1.2l-1.5-1.2h-2.8V33c6.9-0.2,12.5-5.9,12.5-12.9l0,0c-7,0-12.6,5.5-12.9,12.5H24
	c-0.2-6.9-5.9-12.5-12.9-12.5l0,0c0,7,5.5,12.6,12.5,12.9v3.2h-3.2L19,37.4l0.8,0.6c0.1,0,0.1,0.1,0.1,0.2l0.3,0.6h1.4v0.8H20
	c-0.2,0-0.3-0.1-0.4-0.2l-0.4-0.7l-1-0.7h-2.7l-2,0.9l1.1,0.8l-0.5,0.6l-1.5-1.1l-7.1,0.8l0,1.2h37V39.9z M35.8,21.1l0.6,0.6
	L26.3,31.7l-0.6-0.6L35.8,21.1z M22.5,31.7l-9.2-8.8l0.6-0.6l9.2,8.8L22.5,31.7z"/>
<path d="M18,8.1v2.9c0,0.1,0.1,0.2,0.2,0.3l3.1,2.3v9H22v-9.2c0-0.1-0.1-0.2-0.2-0.3l-3.1-2.3V8.1c0.9-0.2,1.6-1,1.6-2
	c0-1.1-0.9-2-2-2s-2,0.9-2,2C16.4,7.1,17.1,7.9,18,8.1z M18.4,5.7c0.2,0,0.4,0.2,0.4,0.4c0,0.2-0.2,0.4-0.4,0.4
	c-0.2,0-0.4-0.2-0.4-0.4C18,5.9,18.2,5.7,18.4,5.7z"/>
<path d="M27.2,13.2l2.2-1.5c0.1-0.1,0.2-0.2,0.2-0.3V8.1c0.9-0.2,1.6-1,1.6-2c0-1.1-0.9-2-2-2s-2,0.9-2,2c0,1,0.7,1.8,1.6,2v3
	l-2.2,1.5c-0.1,0.1-0.2,0.2-0.2,0.3v9.7h0.8V13.2z M29.2,5.7c0.2,0,0.4,0.2,0.4,0.4c0,0.2-0.2,0.4-0.4,0.4c-0.2,0-0.4-0.2-0.4-0.4
	C28.8,5.9,29,5.7,29.2,5.7z"/>
<path d="M32.9,13.3V15h-3.2c-0.2,0-0.4,0.2-0.4,0.4v4.8H30v-4.4h3.2c0.2,0,0.4-0.2,0.4-0.4v-2.1c0.9-0.2,1.6-1,1.6-2
	c0-1.1-0.9-2-2-2s-2,0.9-2,2C31.2,12.3,31.9,13.1,32.9,13.3z M33.3,10.9c0.2,0,0.4,0.2,0.4,0.4c0,0.2-0.2,0.4-0.4,0.4
	s-0.4-0.2-0.4-0.4C32.9,11.1,33,10.9,33.3,10.9z"/>
<path d="M14.4,12.9v2.5c0,0.2,0.2,0.4,0.4,0.4H18v4h0.8v-4.4c0-0.2-0.2-0.4-0.4-0.4h-3.2v-2.1c0.9-0.2,1.6-1,1.6-2c0-1.1-0.9-2-2-2
	s-2,0.9-2,2C12.7,11.9,13.4,12.7,14.4,12.9z M14.8,10.5c0.2,0,0.4,0.2,0.4,0.4c0,0.2-0.2,0.4-0.4,0.4s-0.4-0.2-0.4-0.4
	C14.4,10.7,14.5,10.5,14.8,10.5z"/>
<path d="M23.8,11.7v12.1h0.8V11.7c0.9-0.2,1.6-1,1.6-2c0-1.1-0.9-2-2-2c-1.1,0-2,0.9-2,2C22.2,10.7,22.9,11.5,23.8,11.7z M24.2,9.3
	c0.2,0,0.4,0.2,0.4,0.4c0,0.2-0.2,0.4-0.4,0.4c-0.2,0-0.4-0.2-0.4-0.4C23.8,9.5,24,9.3,24.2,9.3z"/>
</svg>
