<?xml version="1.0" encoding="utf-8"?>
<!-- Generator: Adobe Illustrator 26.0.1, SVG Export Plug-In . SVG Version: 6.00 Build 0)  -->
<svg version="1.1" id="Layer_1" xmlns="http://www.w3.org/2000/svg" xmlns:xlink="http://www.w3.org/1999/xlink" x="0px" y="0px"
	 viewBox="0 0 48 48" style="enable-background:new 0 0 48 48;" xml:space="preserve">
<style type="text/css">
	.st0{fill:#FFC876;}
</style>
<path class="st0" d="M12,0h24c6.6,0,12,5.4,12,12v24c0,6.6-5.4,12-12,12H12C5.4,48,0,42.6,0,36V12C0,5.4,5.4,0,12,0z"/>
<path d="M24,2.1C11.9,2.1,2.1,11.9,2.1,24S11.9,45.9,24,45.9S45.9,36.1,45.9,24S36.1,2.1,24,2.1z M24,44.1c-11.1,0-20.1-9-20.1-20.1
	S12.9,3.9,24,3.9s20.1,9,20.1,20.1S35.1,44.1,24,44.1z"/>
<circle cx="15.6" cy="18.5" r="3.7"/>
<circle cx="32.4" cy="18.5" r="3.7"/>
<path d="M35.1,26.9c-2.5-0.5-6.3-1-11.1-1h0c-4.8,0-8.6,0.5-11.1,1c-1,0.2-1.3,0.9-1.3,1.5c0,5.3,4.1,10.7,12.4,10.7h0
	c8.3,0,12.4-5.3,12.4-10.7C36.4,27.8,36.1,27.1,35.1,26.9 M34.2,29.7c0,0.3-0.1,0.7-0.2,1.1c-0.1,0.5-0.2,0.7-0.9,0.6
	c-1.4-0.2-16.8-0.2-18.2,0c-0.7,0.1-0.8-0.1-0.9-0.6c-0.1-0.4-0.1-0.8-0.2-1.1c-0.1-0.5,0-0.9,0.9-1.1c1.6-0.3,5-0.7,9.3-0.7
	c4.3,0,7.7,0.5,9.3,0.7C34.2,28.7,34.3,29.1,34.2,29.7"/>
</svg>
