<?xml version="1.0" encoding="utf-8"?>
<!-- Generator: Adobe Illustrator 26.0.1, SVG Export Plug-In . SVG Version: 6.00 Build 0)  -->
<svg version="1.1" id="Layer_1" xmlns="http://www.w3.org/2000/svg" xmlns:xlink="http://www.w3.org/1999/xlink" x="0px" y="0px"
	 viewBox="0 0 190 40" style="enable-background:new 0 0 190 40;" xml:space="preserve">
<style type="text/css">
	.st0{fill:#FFFFFF;}
	.st1{fill:#09090A;}
	.st2{fill:#0D0E11;}
	.st3{fill:#202831;}
	.st4{fill:#4173A3;}
	.st5{fill:#0D366C;}
	.st6{fill:#FBFBFB;}
	.st7{fill:#DE8E46;}
	.st8{fill:#BFBFBE;}
	.st9{fill:#EEEEEE;}
	.st10{fill:#6B3F22;}
	.st11{fill:#2C78C3;}
	.st12{fill:#64A2DB;}
	.st13{fill:#2C7AC7;}
	.st14{fill:#F6F6F6;}
	.st15{fill:#2F7DC9;}
	.st16{fill:none;}
</style>
<g>
	<g>
		<g transform="translate(225.683371, 485.692203)">
			<g>
				<path class="st0" d="M-162.4-455.4l4.6-11.3l0,11.4h4.1v-18h-5.8l-4,10.4l-4-10.4h-5.8v18h4.1l0.1-11.4l4.6,11.3H-162.4z"/>
			</g>
		</g>
	</g>
	<g>
		<g transform="translate(322.848786, 485.692203)">
			<g>
				<path class="st0" d="M-247.8-473.3v18h4.1v-6.7c0.4,0,0.8,0,1.3,0l4.4,6.7h4.5l-4.9-7.5c1.8-0.7,3.3-2.2,3.3-4.9
					c0-2.7-1.8-5.4-6.1-5.5H-247.8z M-243.7-465.3v-4.8c2.4,0,4.3,0.4,4.3,2.4C-239.4-465.5-241.7-465.3-243.7-465.3z"/>
			</g>
		</g>
	</g>
	<g>
		<g transform="translate(389.021783, 485.692203)">
			<g>
				<path class="st0" d="M-298.5-457.3c0,1,0.9,1.9,1.9,1.9s1.9-0.9,1.9-1.9c0-1-0.9-1.9-1.9-1.9S-298.5-458.3-298.5-457.3z"/>
			</g>
		</g>
	</g>
	<g>
		<g transform="translate(431.834116, 485.692203)">
			<g>
				<path class="st0" d="M-320.8-473.3h-10.4v18h4.1v-7.2h5.8v-3.6h-5.8v-3.6h6.3V-473.3z"/>
			</g>
		</g>
	</g>
	<g>
		<g transform="translate(488.420891, 485.692203)">
			<g>
				<path class="st0" d="M-364.2-473.3h-10.3v18h10.3v-3.6h-6.2v-3.6h5.9v-3.6h-5.9v-3.6h6.2V-473.3z"/>
			</g>
		</g>
	</g>
	<g>
		<g transform="translate(545.473004, 485.692203)">
			<g>
				<path class="st0" d="M-407.7-473.3h-3.8l-7.2,18h4.4l1.3-3.6h6.8l1.4,3.6h4.4L-407.7-473.3z M-407.5-462.5h-4.1l2-5.2
					L-407.5-462.5z"/>
			</g>
		</g>
	</g>
	<g>
		<g transform="translate(632.121461, 485.692203)">
			<g>
				<path class="st0" d="M-482.8-460.8l-2,3.4c7.4,5.2,13.5,0.9,13.5-3.4c0-5-8-5.5-8-7.5c0-1.5,3.1-2.7,5.8-0.4l1.7-3.3
					c-7.2-4.1-11.4-0.1-11.4,3.8c0,4.1,7.5,4.8,7.5,7.6C-475.8-457.9-480.4-459.2-482.8-460.8z"/>
			</g>
		</g>
	</g>
	<g>
		<g transform="translate(699.690488, 485.692203)">
			<g>
				<path class="st0" d="M-536.7-469.7h4.3v14.4h4.1v-14.4h4.3v-3.6h-12.6V-469.7z"/>
			</g>
		</g>
	</g>
	<path class="st1" d="M13.9,36.9c-0.3,0-0.5,0.1-0.8-0.1c-0.1-0.6-0.7-0.4-1.1-0.6c0,0,0,0,0,0c0-0.4-0.3-0.8-0.1-1.2c0,0,0,0,0,0
		c0,0,0,0,0,0c-0.2,0-0.4,0-0.5,0.2c-0.1,0-0.2,0-0.4,0c0,0-0.1,0-0.1,0c-1.4,0.5-2.8,0.5-4.2,0.5c-0.4-0.2-0.8-0.1-1.2-0.1
		c-0.1,0-0.2,0-0.3,0c0,0-0.1-0.1-0.1-0.1c-0.4,0-0.8,0-1.2,0c-0.2,0-0.3-0.1-0.5-0.1c0,0-0.1-0.1-0.1-0.1c0,0,0,0,0,0
		C2.8,35.1,2.4,35,2,35.1c-0.1-0.1-0.4-0.2-0.2-0.5c0.2,0.1,0.4,0.1,0.6,0.2c0.1,0,0.1,0,0.2,0.1c0.5,0,0.8-0.2,1-0.7c0,0,0,0,0,0
		c0,0,0,0-0.1-0.1c-0.3-0.3-0.6-0.5-1-0.5c0,0-0.1,0-0.1,0c-0.1,0-0.3,0-0.4,0c0,0-0.1-0.1-0.1-0.1c0,0,0-0.1,0-0.1c0,0,0,0,0,0
		c0.2,0,0.3,0,0.5,0c0.1,0,0.3,0,0.4,0c0.2,0,0.3-0.1,0.5-0.1c0.1,0,0.1,0,0.2,0c-0.1,0.4,0.4,0.5,0.6,0.7c0,0.1,0,0.2,0,0.3
		c-0.1,0.1-0.1,0.2-0.2,0.3c-0.3,0.6-0.3,0.7,0.4,0.7c0.4,0,0.8,0.1,1.2,0.1c0.7,0,1.3-0.1,1.6-0.7c0.1-0.2,0.3-0.4,0.5-0.5
		c0.1,0,0.2,0,0.3,0c-0.2,0.2-0.4,0.4-0.6,0.7c-0.3,0.6-0.3,0.6,0.4,0.6c0.5,0,1,0,1.5,0c0.1,0,0.1,0,0.2-0.1
		c0.3-0.1,0.6-0.2,0.9-0.2c0.6,0,0.6-0.2,0.3-0.5c0-0.1,0-0.1,0.1-0.2c0.3,0.5,0.8,0.3,1.2,0.1c0.4-0.2,0.2-0.6,0.2-0.9
		c0-0.2-0.2-0.3-0.3-0.5c-0.3-0.4-0.7-0.9-0.6-1.3c0.1-0.9-0.3-0.4-0.7-0.3c-0.1,0-0.2,0.1-0.3,0.1c-0.1,0-0.1-0.1-0.1-0.2
		c0.2-0.1,0.4-0.3,0.6-0.4c0.4-0.3,0.5-0.8,0.1-1.1c-0.7-0.5-1.2-1.2-1.9-1.6c-0.4-0.8-0.8-1.5-1.1-2.3c-0.1-0.3,0-0.6-0.3-0.8
		c-0.2-0.3,0.1-0.6,0-0.8c0,0,0.1-0.1,0.1-0.1c0.1,0.1,0.2,0.1,0.3,0.3c-0.2,0.3,0.1,0.4,0.3,0.4c0.3,0.1,0.7,0.2,1,0.3
		c0,0,0.1,0,0.1,0c0.9,0,1-0.1,1.2-1c0.1-0.2,0.1-0.5,0.2-0.7c0.4,0.2,0.1,0.5,0.2,0.7c-0.1,0.1-0.2,0.3-0.1,0.4
		c-0.3,0.5-0.2,0.7,0.5,0.6c0.3,0,0.6-0.1,0.8,0.1c0,0.4-0.3,0.2-0.5,0.2c-1.1-0.1-2.2-0.1-3.4-0.3c0.4,1.9,1.4,3.3,3.2,4.2
		c1.5,1.2,3.2,1.5,5.1,1.7c-0.1,0.1-0.2,0.1-0.2,0.2c-1,0.1-2-0.1-3.1-0.4c-0.2,1.1-0.3,2.3-0.6,3.4c-0.4,1.5,0,1.6,1.4,1.8
		c0.1,0,0.2,0,0.3,0c2.5,0.2,5-0.1,7.4-0.3c0.8-0.1,1.1-0.5,1.6-1.1c-0.3,0-0.4,0.1-0.5,0.1c-1,0.1-2,0.2-3,0.2
		c-0.2,0-0.4,0-0.5-0.3c0-0.2,0.2-0.3,0.4-0.3c0.5-0.1,1-0.3,1.6-0.2c0,0.1,0,0.1,0.1,0.2c-0.1,0.3-0.3-0.1-0.4,0
		c-0.2,0-0.3,0.1-0.3,0.3c0.1,0.2,0.3,0.1,0.4,0c0.5-0.1,1.1,0,1.6-0.2c0.6,0,1.1-0.1,1.4-0.7c0.3-0.4,0.3-1-0.2-1.5
		c-0.3-0.4-0.8-0.4-1.3-0.2c-0.1,0-0.2,0.3-0.4,0.1c-0.2-0.1,0-0.2,0.1-0.2c1-0.5,1.6-0.5,2.1,0.6c0.1,0.3,0.2,0.4,0.4,0.1
		c0.3,0,0.2,0.2,0.3,0.4c-0.8,1.2-1.5,2.5-2.8,3.4c-0.4,0.3-0.9,0.7-0.7,1.2c0.2,0.5,0.8,0.5,1.3,0.6c0.1,0.1,0.1,0.1,0.2,0
		c0.4,0,0.8,0.1,1.2,0c0.5-0.2,0.2-0.7,0.4-1.1c0.1,0,0.2,0,0.2,0c0,0.1-0.1,0.2-0.1,0.3c0,0,0,0.1,0,0.1c0,0.1,0,0.1,0,0.2
		c0,0,0,0.1,0,0.1c0.1,0.3,0.4,0.5,0.7,0.5c0.8,0.2,1.6,0.1,2.4-0.1c0.3,0,0.6,0.1,0.8-0.1c0.5,0.1,1,0.1,1.5,0.1
		c0.4,0,0.7-0.2,0.6-0.7c0,0,0-0.1,0.1-0.1c0,0-0.1,0-0.1,0c0,0,0-0.1,0-0.1c0.3,0,0.6,0,1,0c-0.1,0.1-0.2,0.2-0.3,0.3
		c-0.4,0.2-0.3,0.4,0,0.6c0.1,0.1,0.5,0,0.3,0.4c-0.4,0-0.8-0.4-1.2-0.1c-0.5,0.1-0.9,0.1-1.4,0c-0.3-0.1-0.7,0-1,0.1
		c-0.2,0.1-0.5,0.2-0.7,0.2c-0.8-0.2-1.7,0.1-2.5-0.2c-0.3-0.1-0.3,0.1-0.3,0.3c-0.8,0.1-1.5,0.1-2.3-0.1c-0.6-0.2-1.2-0.3-1.5-0.8
		c0.3,0,0.4-0.1,0.4-0.3c0-0.2-0.1-0.4-0.4-0.3c0-0.1,0.2-0.3,0.1-0.4c0.1-0.2,0.2-0.1,0.4-0.1c0,0.1,0,0.2,0.1,0.1
		c0.1,0,0.1-0.2,0.1-0.2c0.2-0.3-0.1-0.2-0.2-0.2c-0.9,0.1-1.8,0.1-2.7,0.2c-0.6,0.1-1.3,0-1.9,0.2c-0.6-0.2-1.2-0.5-1.8,0.1
		c-0.1,0.1-0.4,0-0.7,0c0-0.1,0-0.3-0.1-0.3C13.9,36.6,13.9,36.8,13.9,36.9z M12.4,32.6c0.1-0.1,0.1-0.1,0-0.2
		c0.1-0.4,0.1-0.8,0.2-1.2c0-0.1,0.1-0.3-0.1-0.4c-0.4-0.2-0.7-0.5-1.2-0.5c0,0,0,0,0,0c0,0,0,0.1,0,0.1c0,0.1,0,0.3,0,0.4
		c0,0.1,0.1,0.1,0.1,0.2c0,0.2,0.1,0.3,0,0.5c0,0,0,0,0,0c0,0,0,0.1,0,0.1c0,0.1,0,0.1,0,0.2c0,0,0.1,0.1,0.1,0.1
		c0.1,0.3,0.3,0.6,0.5,0.8C12.5,33.1,12.3,32.7,12.4,32.6z M24.1,38.7c-0.5-0.2-1-0.1-1.5-0.1C23.1,38.8,23.6,38.8,24.1,38.7z"/>
	<path class="st1" d="M24.2,7.2c0,0.2,0.4,0,0.4,0.2c-0.1,0-0.2,0.1-0.2,0.1c0,0.2,0.3,0.2,0.4,0.2c0.6,0.1,1.3,0.2,1.9,0
		c0.6,0.2,1.2,0,1.8,0.2c0.4,0,0.9,0,1.3,0c0.2,0.1,0.4,0.2,0.6,0c0.1,0,0.2,0,0.3,0c0.1,0,0.1,0,0.2,0c0.3,0.4,0.9,0.1,1.2,0.4
		c0,0.1,0.1,0.1,0.1,0c0.2-0.1,0.3,0.1,0.5,0.1c0.3,0.4,0.4,0.8,0.4,1.3c0.1,0.5-0.2,0.9-0.3,1.4c0,0-0.1,0.1-0.1,0.1
		c-0.3,0-0.5,0.1-0.7,0.3c0.2,0.2-0.2,0.6,0.2,0.7c0,0.3,0,0.6,0,0.9c0,0.2-0.1,0.2-0.2,0.2c0-0.1,0-0.2-0.2-0.2
		c-0.2,0.1-0.1,0.3-0.1,0.4c0,0.2-0.1,0.5,0.1,0.7c0,0,0,0,0,0c0,0.1,0,0.1,0,0.2c0,0.1,0,0.1,0,0.2c-0.3,0.1-0.3,0.3-0.2,0.5
		c0,0.2,0.1,0.4,0.1,0.6c-0.5,0.1-0.2,0.5-0.3,0.7c0.1,1.1-0.4,2.2-0.2,3.4c0,0.1,0,0.1,0,0.2c-0.2,0-0.2,0.1-0.2,0.2
		c0,0.1,0.1,0.2,0.1,0.3c-0.3,0.1-0.2,0.2-0.2,0.4c-0.2,0.8-0.7,1.5-1.6,1.7c-0.6,0-1.2,0.1-1.9,0.1c-0.2,0-0.3,0-0.3,0.2
		c0,0.1,0.2,0.1,0.3,0.1c0,0,0,0.1,0,0.1c-0.1,0-0.3,0-0.3,0.1c-0.1,0.1,0.1,0.2,0.2,0.3c0.2,0.1,0.3,0.2,0.5,0.3c0,0,0.1,0,0.1,0
		c0.3,0.2,0.5,0.4,0.7,0.7c0,0,0.1,0.1,0.1,0.1c0.1,0,0.1,0.1,0.1,0.2c0,0,0.1,0.1,0.1,0.1c0,0,0,0.1,0,0.1c0,0,0.1,0.1,0.1,0.1
		c0.1,0.1,0.1,0.2,0.2,0.3c-0.1,0.2-0.1,0.3-0.3,0.4c-0.3-0.7-0.8-1.2-1.4-1.7c-0.1-0.1-0.2-0.2-0.3,0c0,0.1-0.1,0.1-0.1,0.2
		c-0.2,0.1-0.3,0.5-0.7,0.3c0.1-0.3,0.3-0.6,0.3-0.9c0-0.2,0-0.4-0.3-0.3c-0.4,0.2-0.8,0.3-1.2,0.4c-0.2,0.1-0.3,0.1-0.2,0.4
		c0.3,0.7,0,1-0.9,0.9c-0.1-0.4,0.3-0.3,0.4-0.3c0.4-0.1,0.3-0.2,0.1-0.5c-0.1-0.1-0.3-0.3-0.5-0.2c-0.1,0-0.1,0-0.1,0
		c-0.9,0.3-1.8,0.3-2.6,0.7c0-0.1,0-0.1,0-0.2c0.2-0.2,0.4-0.4,0.7-0.6c0.1,0,0.1-0.1,0.2-0.1c1.2-0.1,2.3-0.4,3.5-0.8
		c1.1-0.4,1.1-0.5,1-1.5c0-0.6-0.3-1.1-0.4-1.6c0,0,0,0,0,0c0,0-0.1,0-0.1-0.1c0,0-0.1-0.1-0.1-0.1c0,0-0.1-0.1-0.1-0.1
		c-0.1-0.4-0.3-0.7-0.5-1.1c-0.4-0.8-1-1.5-1.5-2.3c-0.1-0.1-0.4-0.3,0-0.4c0.4,0.3,0.6,0.7,0.9,1.1c1,1.5,2.1,3.1,2.2,5
		c0,0.2,0,0.3,0.2,0.3c1.4,0.1,2.8-0.1,3.1-1.7c0.2-1.5,0.4-2.9,0.6-4.4c0.2-1.5,0.2-3,0.5-4.5c0-0.1-0.1-0.1-0.1-0.2
		c-1.9,0.3-3.8,0.1-5.7,0c-0.2,0-0.4-0.1-0.5,0.1c-0.5,1-1.3,1.7-2.2,2.3c-0.3,0.2-0.3,0.4,0,0.7c0.1,0.1,0.4,0.2,0,0.3
		c-0.4,0-0.5-0.5-0.8-0.6c-0.2-0.4,0.1-0.5,0.4-0.7c0.3-0.2,0.6-0.3,0.9-0.5c0,0,0.1,0,0.1-0.1c0.5-0.6,1.1-1,1.3-1.8
		c0.2-0.5,0.2-1,0.2-1.5c0,0,0,0,0,0c0,0,0-0.1,0-0.1c-0.4-1-0.7-1.9-1.5-2.7l0,0c0-0.3-0.3-0.3-0.4-0.5c0.1-0.1,0.2-0.1,0.3-0.2
		c0.1,0.1,0.2,0.2,0.4,0.3C23.8,7,23.9,7,24.1,7c0,0,0,0.1,0,0.1C24.1,7.1,24.2,7.2,24.2,7.2z M32.5,10.1c0-0.1-0.1-0.1-0.1-0.2
		c0.5-0.4,0.5-0.7-0.1-1c-0.3-0.1-0.6-0.2-0.9-0.3c-2.1-0.2-4.3-0.3-6.4-0.4c-0.1,0-0.2,0-0.2,0.1c0.2,0.4,0.4,0.8,0.5,1.2
		c0.1,0.2,0.2,0.3,0.4,0.3c0.6,0,1.2,0.1,1.8,0.2c0,0.1,0,0.1,0,0.2c-0.5,0-1-0.1-1.5-0.1c-0.2,0-0.5-0.1-0.4,0.2
		c0.1,0.3-0.5,0.8,0.3,0.9c1.1,0.1,2.3,0.2,3.4,0.2c0.8,0,1.7,0,2.5-0.2c0.4-0.1,0.7-0.3,0.9-0.7C32.8,10.4,33,10.1,32.5,10.1z"/>
	<path class="st1" d="M7.5,10c0.1-0.4-0.4-0.9,0.1-1.3C7.6,9,7.4,9.4,7.7,9.6c0,0,0,0,0.1,0c0,0,0,0-0.1-0.1c0-0.4,0-0.7,0-1.1
		c0,0,0,0,0,0c0.1,0,0.3,0,0.4-0.1c0,0,0-0.1,0-0.1c0.2-0.1,0.4-0.1,0.6-0.2c0.2,0,0.3,0,0.1-0.2c0.1-0.2-0.2-0.3-0.2-0.4
		c0.2,0,0.3-0.1,0.1-0.2l0,0c0-0.1,0-0.2,0-0.3C8.5,7,8.5,7.1,8.5,7.2l0,0C8.2,7,8.2,6.6,8.2,6.3c0-0.2,0.1-0.5-0.1-0.7
		c0.1,0,0.2-0.1,0.3-0.1c0.2-0.2,0.3-0.4,0.4-0.7c0.1-0.1,0.1-0.1,0.1-0.2c0.3-0.4,0.7-0.8,1-1.3c0.2,0,0.5,0.1,0.7-0.1
		c1.4-0.4,2.5-0.1,3.6,0.8c-0.1,0.3-0.2,0.2-0.4,0.1c-0.3-0.2-0.6-0.4-0.9-0.5c-2.4-0.8-4,0.5-4,2.5c0,0.8,0.3,1.5,1.2,1.8
		c0,0.1,0,0.2-0.1,0.2C9,8,9.6,8.4,9.7,8.6c0,0.1,0,0.1,0,0.2c-0.5,0-1-0.1-1.5,0.1C8,9,7.9,9.1,8,9.3c0.1,0.1,0.3,0.3,0.4,0.4
		c0,0.1-0.1,0.2-0.2,0.2c-0.4,0.2-0.4,0.4,0.1,0.6c1.3,0.4,2.7,0.5,4.1,0.6c0,0.1,0.1,0.1,0.1,0c0.4,0,0.8,0,1.2,0.2
		c-0.2,0.4-0.5,0.2-0.8,0.1c0,0-0.1,0-0.1,0c-0.4,0-0.7,0-1.1,0c0,0-0.1,0-0.1,0c-0.4,0-0.8-0.1-1.1-0.1c0,0-0.1,0-0.1,0
		c-0.4,0-0.8-0.1-1.2-0.1c-0.4-0.2-0.3,0.1-0.2,0.3c0.5,0.9,1.2,1.5,2.2,1.8c0,0,0.1,0.1,0.1,0.1c0.3,0.6,1,1,1.5,1.5c0,0,0,0,0,0.1
		c0,0.1,0,0.2,0.1,0.4c-0.3-0.1-0.4,0.2-0.5,0.3c-0.1-0.1-0.1-0.2-0.2-0.2c0,0,0,0,0,0c0.1-0.4-0.2-0.5-0.5-0.7c0,0,0-0.1,0-0.1
		c-0.1-0.2-0.3-0.4-0.6-0.3c-0.1-0.1-0.3-0.1-0.4-0.2c0.1,0,0.2,0,0.2-0.1c-0.1-0.1-0.2-0.3-0.4-0.1c-0.3-0.2-0.6-0.5-0.9-0.7
		c0,0-0.1-0.1-0.1-0.1c-0.1-0.1-0.3-0.3-0.4-0.4c0-0.2-0.2-0.2-0.3-0.2c-0.2-0.3-0.2-0.6-0.3-0.9c0,0-0.1-0.1-0.1-0.1
		c-0.1-0.3-0.6-0.1-0.5-0.5C7.6,10.4,7.9,10,7.5,10z"/>
	<path class="st2" d="M10.6,3.2c-0.2,0.2-0.5,0.1-0.7,0.1c0,0,0-0.1,0-0.1c0.2-0.2,0.4-0.4,0.6-0.7l0,0c0.3,0,0.4-0.2,0.6-0.3
		c0.1,0,0.2,0,0.2-0.1c0,0-0.1-0.1-0.1-0.1c-0.1,0-0.1,0.1-0.2,0.1c-0.2,0-0.4,0-0.6,0c1-1.2,3.8-1.3,4.7-0.4l0,0
		c-0.6,0-1.1-0.5-1.8-0.3c-0.4,0-0.8-0.1-1.1,0.2c0.4,0,0.8,0,1.1,0c0.6,0.1,1.2,0.4,1.8,0.7c0-0.2,0-0.3,0-0.5c0,0,0,0,0,0
		c0.1,0,0.2,0.1,0.2,0.1c0.3,0.6,0.5,0.7,1.1,0.2c0.5-0.4,1-0.6,1.6-0.6c0.4,0,0.7,0,1.1,0c0.3,0.1,0.7,0.2,1,0.2
		C20.3,2,20.5,2,20.6,2l0,0c0.7,0.4,1.2,1.1,1.7,1.8c0.1,0.2,0,0.5,0.3,0.7c-0.1-0.3,0.1-0.7-0.2-0.9c-0.1-0.2-0.1-0.4-0.2-0.6
		c0-0.1,0-0.2,0-0.4c0.4,0.3,0.6,0.8,0.6,1.2c0,0.7,0.1,1.4,0.2,2c-0.1,0-0.2,0-0.2,0.1c0.1,0.2,0.2,0.2,0.4,0.2
		c0.1,0.1,0.2,0.2,0.3,0.3c-0.1,0-0.3,0.1-0.3,0.2c-0.3-0.3-0.6-0.2-1-0.1c0-0.2,0-0.3,0-0.5c0.1-0.4,0.1-0.8,0-1.2
		c0-0.1,0-0.2-0.1-0.2c0-0.5-0.2-1-0.6-1.4C20.6,2.2,19.4,2,18,2.2c-0.5,0.1-1.1,0.1-1.4,0.7c-0.5,0.2-0.9,0.5-0.9,1.1
		c0.1,0.1,0.1,0.2,0,0.3c-0.1-0.2-0.2-0.3-0.3-0.5c0,0,0,0,0,0c0.4-0.6,0.3-0.7-0.4-1c-0.2-0.2-0.4-0.3-0.6-0.3c0,0-0.1,0-0.1,0
		c0,0,0,0,0,0c-0.8-0.6-1.6-0.5-2.4-0.2c0.4,0.1,0.9,0.1,1.3,0.2c0.8,0.2,1.3,0.6,2,1.1c0,0.1,0.2,0.1,0.3,0.2c0,0,0,0,0,0
		c-0.1,0-0.2,0.1-0.4,0.1c-0.2,0-0.3-0.1-0.4-0.2c-0.9-0.8-2-1.1-3.3-1.1c-0.4,0-0.7,0.2-1,0.5C10.2,3.1,10.4,3.2,10.6,3.2z"/>
	<path class="st2" d="M7.4,24.3c0.1,0.3-0.2,0.6,0,0.8c0,0.6-0.1,1.3,0,1.9c0,0.7,0.1,1.3,0.5,1.9c0,0.5,0.2,1,0.4,1.4
		c0.3,0.5,0.2,1.3,1.2,1.2c0,0.1,0.1,0,0.1,0c0.1,0,0.2-0.1,0.3-0.1c0,0.1,0,0.2,0.1,0.2c0,0,0,0.1,0,0.1c-0.2,0-0.3,0-0.5,0
		c-0.5,0-1.1-0.4-1.1,0.5c0,0.1-0.2,0.1-0.3,0.2c-0.1-0.2-0.2-0.2-0.5-0.1c0.2,0,0.3,0,0.5,0.1c-0.1,0.2,0.2,0.2,0.3,0.6
		c-0.7-0.6-1.4-0.2-2-0.2c-0.3,0-0.6-0.1-0.9-0.1c-0.8-0.1-1.6-0.1-2.3,0.5c-0.1,0-0.1,0-0.2,0c0-0.1-0.1-0.1-0.2-0.1
		c0,0,0-0.1,0-0.1c0.9-1.1,2.1-1,3.3-0.7c0.5,0.1,1-0.1,1.4-0.1c0.1,0,0.2-0.1,0.2-0.2c0.2-0.5-0.1-1.5-0.6-1.9
		c-0.4-0.3-0.5-0.7-0.5-1.1c0.5,0.1,0.3,0.7,0.9,0.9c-0.4-0.7-0.4-1.4-0.5-2c0-0.3-0.1-0.5-0.1-0.8c0-0.1,0-0.2-0.1-0.2
		c-0.2,0-0.2,0.1-0.2,0.2c0,0.3,0,0.5,0,0.8c0,0.1,0,0.2,0,0.3c0,0.1,0,0.3,0.1,0.4c0,0.2,0,0.3,0,0.5c-0.4-0.7-0.4-1.6-0.4-2.4
		c0,0,0-0.1,0-0.1c0.8-0.4,0.2-1.3,0.6-1.8C7.2,24.5,7.3,24.4,7.4,24.3z M7,32.5c0.2,0.1,0.3,0.1,0.5,0C7.3,32.4,7.2,32.4,7,32.5z"
		/>
	<path class="st1" d="M8.9,16.8c0-0.2,0.1-0.3,0.3-0.4c0,0.1,0.1,0.1,0.2,0.1c0.1-0.1,0-0.1-0.1-0.2c0,0,0.1-0.1,0.1-0.1
		c0,0,0.1-0.1,0.1-0.1c0.1-0.2,0.2-0.5,0.5-0.6c0.2,0,0.3-0.1,0.3-0.2c0.2-0.2,0.3-0.4,0.6-0.5c0.1,0,0.2,0,0.3,0
		c0,0.2-0.1,0.3-0.2,0.5c0,0-0.1,0.1-0.1,0.1c0,0,0,0.1,0,0.1c-0.7,0.4-1.1,1.1-1.5,1.7c-0.4,0.5-0.6,1-0.9,1.6
		c-0.2,0.4,0.1,0.3,0.3,0.2c0.1,0,0.2,0,0.4,0c0.2,0.1,0.4,0.1,0.7,0.2c0,0,0.1,0,0.1,0c0.5-1.5,0.9-2.9,2.1-4.1c0,0,0,0,0,0
		c0,0.1,0,0.2,0.1,0.3c-0.8,1-1.4,2.2-1.6,3.5c0,0.1-0.1,0.2-0.1,0.2c0,0.2-0.1,0.4,0.1,0.6c0,0,0.1,0.1,0.1,0.1
		c0,0,0.1,0.1,0.1,0.1l0,0c0.1,0.2,0.1,0.4,0.2,0.6c0,0.2,0.2,0.4,0,0.5c-0.3,0.1-0.3-0.2-0.4-0.3c-0.2-0.4-0.5-0.8-0.9-1.2
		c-0.2-0.2-0.5-0.4-0.9-0.2c-0.5,0-0.7,0.2-0.9,0.6c-0.1,0-0.1,0.1-0.1,0.2c-0.1,0.1-0.1,0.1-0.2,0c0,0-0.1-0.1,0-0.1
		c0-0.2,0-0.3,0-0.5c0.1-0.1,0.2-0.2,0.3-0.4c0.1-0.2,0.3-0.5-0.1-0.6c0,0,0-0.1,0-0.1c0.2-0.1,0.5-0.2,0.5-0.6c0,0,0.1-0.1,0.1-0.1
		c0,0,0-0.1,0-0.1C8.8,17.5,9.1,17.2,8.9,16.8z"/>
	<path class="st1" d="M28.4,32c-0.1,0.4-0.5,0.7-0.4,1.1c0,0,0.1,0.1,0.1,0.1c0.2,0,0.4,0.1,0.5,0.2c-0.3,0-0.3,0.2-0.3,0.3
		c0,0-0.1,0.1-0.1,0.1c-0.3-0.4-0.7-0.5-1.1-0.1c0.1,0.3,0.6,0.5,0.2,0.9c-0.2-0.3-0.4-0.6-0.5-1c0-0.2,0.1-0.3,0.2-0.5
		c0.4-0.7,0.9-1.4,1.3-2.1c0.3-0.6,0.7-1.2,0.6-2c0,0,0,0,0,0c0,0,0-0.1,0-0.1c0.4-0.8,0.2-1.7,0-2.6c0.1,0,0.3,0,0.4,0.1
		c0,1,0.2,2.1,0.1,3.1c-0.1,0.2-0.1,0.4-0.2,0.6c-0.3,0.4-0.4,0.8-0.4,1.3c0,0-0.1,0.1-0.1,0.1C28.7,31.6,28.4,31.7,28.4,32z"/>
	<path class="st1" d="M7.6,22.7c0-0.1,0-0.2,0-0.2c0.1,0,0.4,0,0.4-0.2c0-0.2-0.2-0.1-0.3-0.2c0-0.2,0-0.5-0.1-0.7
		c-0.1-0.4-0.1-0.7,0.2-0.9c0.4,0.3,0.1,0.9,0.5,1.2c0,0.3,0.2,0.6,0,0.9c-0.1,0.2-0.1,0.3,0,0.5c0,0.1,0.1,0.3,0.1,0.4
		c0.1,0.2,0.2,0.4,0.4,0.3C9,23.8,9,23.6,9,23.5c0-0.4-0.1-0.7,0.2-1.1c0,0.2,0.1,0.3,0.1,0.4c0,0.3,0,0.8,0.3,0.9
		c0.3,0.1,0.4-0.4,0.6-0.6c0.1,0,0.2,0,0.2-0.1c0.2,0,0.5-0.1,0.7-0.1c0.1,0,0.2,0,0.3,0c0,0,0,0.1,0,0.1c-0.1,0-0.1,0.1-0.2,0.1
		c-0.1,0-0.2,0.1-0.3,0.1c-0.2,0-0.4,0-0.5,0.2c-0.2,0.7-0.8,0.9-1.5,1c-0.1,0-0.1,0-0.2,0c-0.1,0.1-0.2,0-0.3,0
		c-0.1-0.1-0.2-0.1-0.4,0l0,0c-0.1-0.1-0.2-0.3-0.4-0.2c0.3-0.3-0.1-0.5,0-0.8C8.1,23,7.9,22.9,7.6,22.7z"/>
	<path class="st3" d="M28.9,31.4c0-0.5,0.1-0.9,0.4-1.3c0.1-0.2,0.1-0.4,0.2-0.6c0.3,0,0.3-0.2,0.3-0.4c0-0.6,0-1.2,0-1.8
		c0-0.3-0.1-0.7-0.4-0.9c-0.1-0.1-0.2-0.1-0.4-0.1c0-0.1-0.1-0.1-0.1-0.2c0.2-0.1,0.2-0.3,0.3-0.4c0.6,0.4,0.8,1,0.8,1.5
		c0.1,1.3,0.2,2.6-0.6,3.8c-0.1,0.2-0.2,0.3-0.4,0.4C29.1,31.4,29,31.4,28.9,31.4z"/>
	<path class="st2" d="M5.5,35.6c0.4,0.1,0.8-0.1,1.2,0.1c1,0.2,2,0.2,2.9,0c0.4-0.1,1,0,1.3-0.5c0,0,0.1,0,0.1,0
		c0.1,0.2,0.2,0.1,0.4,0c0.1-0.2,0.3-0.2,0.5-0.2l0,0c-0.2,0.4,0.1,0.8,0.1,1.2c-0.1,0-0.2-0.1-0.2-0.1c-0.2-0.7-0.7-0.5-1.2-0.3
		c-1.3,0.4-2.6,0.4-4,0.3c-0.7-0.1-1.4-0.1-2.1-0.2c-0.8-0.1-1.6-0.3-2.4-0.6c0,0,0,0,0,0c0.4,0,0.7,0,1.1,0c0,0,0,0,0,0
		c0,0,0.1,0.1,0.1,0.1c0.2,0,0.3,0.1,0.5,0.1c0.4,0.2,0.8,0.2,1.2,0c0,0,0.1,0.1,0.1,0.1C5.3,35.8,5.4,35.8,5.5,35.6z"/>
	<path class="st2" d="M31.7,15.2c-0.1-0.2-0.2-0.4,0.2-0.5c0,0.1,0,0.2,0.1,0.1c0.1-0.1,0.1-0.2-0.1-0.3c0-0.1,0-0.1,0-0.2
		c0.6,0.2,0.5,0.9,0.4,1.2c-0.2,1-0.1,1.9-0.3,2.9c-0.2,0.9-0.1,1.8-0.5,2.7c-0.3-0.4,0.2-0.8,0-1.3c0.1-1.1,0.4-2.1,0.3-3.2
		c0-0.3,0-0.3-0.3-0.2c0.1-0.2-0.2-0.6,0.3-0.7C32,15.5,32.1,15.3,31.7,15.2z"/>
	<path class="st4" d="M33.4,34.9c-0.2-0.2-0.5-0.2-0.4-0.6c0.8,0,1.7-0.1,2.5,0.1c0,0,0,0,0,0c0,0.2,0.1,0.2,0.3,0.1c0,0,0,0,0,0
		c0,0.2,0.1,0.2,0.3,0.1c0,0,0,0,0,0c-0.1,0.2,0.1,0.4,0.1,0.6c-0.6,0.4-1.2,0.4-1.8,0.2C34,35.4,33.7,35.1,33.4,34.9z M34.4,35.3
		c0.1-0.3,0.6-0.1,0.5-0.5c-0.2-0.4-0.5-0.1-0.9-0.2C34.5,34.6,34.2,35,34.4,35.3z"/>
	<path class="st4" d="M30.8,32.6c0,0,0.1,0.1,0.1,0.1c0.3,0.2,0.7,0.2,0.6,0.6c-0.1,0.4-0.6,0.4-0.9,0.5c-0.1,0.1-0.3,0-0.5,0
		c-0.3,0-0.7,0.1-0.8-0.3c-0.1-0.3-0.1-0.6,0.2-0.9C30,32.8,30.4,32.8,30.8,32.6z"/>
	<path class="st3" d="M35.5,34.5c-0.8-0.2-1.7-0.1-2.5-0.1c0.2-0.2,0.5-0.2,0.8-0.3c0-0.2-0.6-0.2-0.3-0.6c0.2-0.3,0.5-0.3,0.9-0.2
		c0.2,0.1,0.5,0,0.8,0.1c0.4,0.1,0.5,0.4,0.2,0.6C35.2,34.3,35.5,34.3,35.5,34.5z"/>
	<path class="st1" d="M28.8,33.7c0.1,0,0.1,0.1,0.1,0.2c-0.3,0.2-0.3,0.5,0,0.7c0,0.1-0.1,0.1-0.2,0.1c-0.2,0-0.3,0.1-0.3,0.2
		c0,0,0,0,0,0c-0.2,0-0.3,0-0.3,0.3c0,0.2,0.2,0.2,0.3,0.1c0.2,0.2,0.5,0.2,0.6,0.5c0.1,0.1,0.2,0.1,0.3,0.1
		c0.3,0.2,0.7,0.2,0.9,0.6c0,0.1,0,0.2,0,0.3c-0.7-0.3-1.4-0.6-2-1c-0.5-0.3-0.7-0.7-0.7-1.2c0.6,0.1,0.9-0.1,0.9-0.8
		c0,0,0.1-0.1,0.1-0.1C28.6,33.8,28.7,33.8,28.8,33.7z"/>
	<path class="st2" d="M32.9,11.2c0.1-0.4,0.4-0.8,0.3-1.4c-0.1-0.5-0.1-0.9-0.4-1.3c0.1-0.2-0.1-0.3-0.2-0.3C32,8.1,31.5,7.8,30.9,8
		c-0.1,0-0.1,0-0.2,0c0.2-0.4,0.6-0.4,0.9-0.3c0.1,0,0.1,0.1,0.2,0.1c0.8,0,1.3,0.3,1.5,1.1c0.1,0.7,0.1,1.3-0.1,1.9
		C33.3,11,33.1,11,32.9,11.2z"/>
	<path class="st2" d="M24.6,38.9c0-0.2,0-0.4,0.3-0.3c0.8,0.2,1.7,0,2.5,0.2c0.2,0.1,0.5-0.1,0.7-0.2c0.3-0.2,0.7-0.2,1-0.1
		c0.5,0.1,0.9,0.1,1.4,0c0,0,0,0.1,0,0.1c-0.2,0.2-0.5,0.1-0.8,0.1c-0.4,0.1-0.9-0.1-1.3,0.1c0,0-0.1,0-0.1,0
		c-0.2,0-0.4-0.1-0.5,0.1c0,0,0,0,0,0c-0.9,0-1.8,0-2.8,0C24.9,38.9,24.7,38.9,24.6,38.9z"/>
	<path class="st3" d="M7.7,20.5c-0.3,0.3-0.4,0.6-0.2,0.9c0.1,0.2,0.1,0.4,0.1,0.7c0,0-0.1,0.1-0.1,0.1c-0.4,0-0.4-0.2-0.4-0.5
		c0-0.5,0-1.1,0-1.6c0.3,0,0.1-0.5,0.4-0.5c0.1,0,0.1,0,0.2,0c0,0.2,0,0.3,0,0.5C7.7,20.3,7.7,20.4,7.7,20.5z"/>
	<path class="st3" d="M22.2,2.6c0,0.1,0,0.2,0,0.4c-0.1-0.1-0.2-0.2-0.3-0.3c-0.4-0.3-0.7-0.7-1.3-0.6c0,0,0,0,0,0
		c0.1-0.3-0.2-0.2-0.4-0.3c0-0.1-0.1-0.2-0.1-0.3C21.1,1.4,21.7,1.9,22.2,2.6z"/>
	<path class="st2" d="M26.7,7.8c-0.6,0.1-1.3,0-1.9,0c-0.1,0-0.4,0-0.4-0.2c0,0,0.1-0.1,0.2-0.1c1.3,0.1,2.5,0.3,3.8,0.2l0,0
		c0,0,0,0.1,0,0.1C27.9,7.8,27.3,7.8,26.7,7.8z"/>
	<path class="st2" d="M16.6,36.8c0.6-0.2,1.3-0.1,1.9-0.2c0.2,0.2,0.4,0.1,0.6,0.1c0.2,0,0.5-0.1,0.7,0.1C18.8,37,17.7,37,16.6,36.8
		z"/>
	<path class="st3" d="M19.9,36.8c-0.2-0.2-0.5-0.1-0.7-0.1c-0.2,0-0.5,0.1-0.6-0.1c0.9-0.1,1.8-0.1,2.7-0.2c0.2,0,0.4-0.1,0.2,0.2
		c-0.1,0-0.2,0.1-0.3,0.1c-0.1,0-0.3,0-0.4,0.1C20.5,36.8,20.2,36.8,19.9,36.8z"/>
	<path class="st3" d="M33.4,34.9c0.3,0.2,0.6,0.4,0.9,0.5c0.6,0.2,1.3,0.1,1.8-0.2c0,0.1,0,0.1,0,0.2c-0.6,0.5-1.9,0.5-2.5,0.1
		C33.5,35.3,33.4,35.2,33.4,34.9z"/>
	<path class="st2" d="M30.4,8c-0.2,0.2-0.4,0.2-0.6,0c0-0.3-0.2-0.4-0.4-0.4c-0.3,0-0.6,0-0.9,0l0,0C29,7.2,30.2,7.4,30.4,8z"/>
	<path class="st3" d="M27.8,24c-0.1-0.1-0.3-0.2-0.5-0.3c-0.1,0-0.3-0.2-0.2-0.3c0-0.1,0.2-0.1,0.3-0.1c0.4-0.3,0.9-0.4,1.4-0.3
		c0,0,0,0.1,0,0.1c-0.1,0.2-0.3,0.1-0.5,0.1c-0.4,0-0.5,0.2-0.5,0.6C27.8,23.8,27.8,23.9,27.8,24z"/>
	<path class="st3" d="M30.8,32.6c-0.4,0.2-0.8,0.2-1.3,0.1c0-0.2,0-0.4,0.3-0.5c0.4-0.1,0.5,0,0.7,0.2
		C30.6,32.5,30.7,32.6,30.8,32.6z"/>
	<path class="st2" d="M8.3,5.5c-0.1,0-0.2,0.1-0.3,0.1c-0.2-0.9,0.3-1.4,0.9-2l0,0c0.1,0.3-0.2,0.4-0.3,0.6C8.6,4.5,8.6,4.6,8.8,4.6
		c0,0.1,0,0.2-0.1,0.2c-0.1,0-0.3-0.2-0.4,0C8.2,5,8.1,5.3,8.3,5.5z"/>
	<path class="st2" d="M31,37c0.9-0.4,2.1-0.1,2.4,0.6c0,0,0,0-0.1,0c-0.2-0.1-0.5-0.2-0.7-0.3c-0.2-0.2-0.4-0.1-0.6-0.1
		C31.7,37.1,31.4,37.2,31,37z"/>
	<path class="st5" d="M31.5,19.8c0.2,0.4-0.3,0.8,0,1.3c0,0.1-0.1,0.3-0.1,0.4c-0.1,0-0.2,0-0.2,0c0-0.2,0-0.4,0-0.6
		c0-0.1,0-0.2,0-0.3c0-0.1-0.1-0.2-0.1-0.3c0.1,0,0.2-0.1,0.2-0.2c0-0.1,0-0.1,0-0.2C31.4,19.8,31.5,19.8,31.5,19.8z"/>
	<path class="st2" d="M1.8,34.6c-0.2,0.2,0.1,0.3,0.2,0.5c0,0.1,0.1,0.2,0.1,0.2c0,0,0,0,0,0c-0.4-0.1-0.8-0.3-0.9-0.7
		c0.3,0.1,0.2,0,0.2-0.2c-0.1-0.6,0-0.7,0.4-0.7C1.6,34,1.5,34.3,1.8,34.6z"/>
	<path class="st2" d="M33.4,38.5c-0.5,0.5-1.1,0.4-1.8,0.3c-0.3,0-0.5-0.2-0.7-0.2c0,0,0-0.1,0-0.1c0.2,0,0.4,0,0.5,0.1
		c0.5,0.1,1.1,0.2,1.6-0.1C33.2,38.5,33.3,38.5,33.4,38.5z"/>
	<path class="st3" d="M0.8,33.7c-0.4,0-0.5,0.2-0.4,0.7c0,0.2,0.1,0.3-0.2,0.2c-0.4-0.6-0.3-0.7,0.4-1.3c0.1,0,0.2,0,0.3,0
		c0,0,0,0.1,0,0.1C0.8,33.5,0.8,33.5,0.8,33.7C0.8,33.6,0.8,33.6,0.8,33.7z"/>
	<path class="st2" d="M7.5,19.7c-0.3,0-0.1,0.5-0.4,0.5c0-0.6,0.1-1.1,0.6-1.5c0,0,0,0,0,0C7.7,19,7.6,19.3,7.5,19.7z"/>
	<path class="st2" d="M32.3,12.3c-0.5-0.1,0-0.5-0.2-0.7c0.2-0.2,0.4-0.3,0.7-0.3C32.5,11.6,32.4,11.9,32.3,12.3z"/>
	<path class="st4" d="M20.1,1.5c0,0.1,0.1,0.2,0.1,0.3c0,0.1,0,0.1,0,0.2c-0.3-0.1-0.7-0.2-1-0.2c0-0.1,0-0.1,0.1-0.2
		C19.5,1.5,19.8,1.5,20.1,1.5L20.1,1.5C20.1,1.4,20.1,1.5,20.1,1.5z"/>
	<path class="st1" d="M30.9,38.5c0,0,0,0.1,0,0.1c-0.8,0.2-1.7,0.1-2.5,0.1c0.4-0.2,0.9,0,1.3-0.1c0.3,0,0.5,0.1,0.8-0.1
		C30.7,38.5,30.8,38.5,30.9,38.5z"/>
	<path class="st1" d="M25.1,38.9c0.9,0,1.8,0,2.8,0C26.9,39.1,26,39.1,25.1,38.9z"/>
	<path class="st3" d="M11.2,14.9c-0.1,0-0.2,0-0.3,0c0.1-0.3,0.4-0.5,0-0.8c0.3,0,0.5,0.1,0.6,0.3c-0.1,0.1-0.1,0.2,0,0.2
		c0,0-0.1,0.1-0.1,0.1C11.3,14.7,11.2,14.7,11.2,14.9L11.2,14.9z"/>
	<path class="st2" d="M12,36.2c0.4,0.1,1,0,1.1,0.6c-0.1,0-0.2,0-0.4,0c0,0-0.1-0.1-0.1-0.1c0,0,0,0,0,0c0,0-0.1-0.1-0.1-0.1
		C12.3,36.6,12.2,36.4,12,36.2z"/>
	<path class="st2" d="M28.8,23.1c0,0,0-0.1,0-0.1c0.2,0,0.3,0,0.5-0.1c0.3,0.2,0.6,0.1,0.9,0c0.1,0,0.1,0,0.2,0.1
		c-0.2,0.3-0.5,0.3-0.8,0.3C29.3,23,29.1,23.1,28.8,23.1z"/>
	<path class="st3" d="M31.2,21.5c0.1,0,0.2,0,0.2,0c-0.1,0.4-0.3,0.8-0.7,1.1c0,0-0.1-0.1-0.1-0.1C30.8,22.2,31,21.8,31.2,21.5z"/>
	<path class="st2" d="M8.9,16.8c0.1,0.4-0.1,0.7-0.5,0.9C8.4,17.3,8.6,17,8.9,16.8z"/>
	<path class="st3" d="M31,37c0.3,0.2,0.7,0.1,1,0.1c0.2,0,0.4-0.1,0.6,0.1c-0.2,0-0.4,0-0.6,0c-0.1,0-0.3,0-0.4,0c-0.3,0-0.6,0-1,0
		c0,0,0-0.1,0.1-0.1c0-0.1-0.1-0.2-0.1-0.3c0,0,0-0.1,0.1-0.1C30.8,36.9,30.9,37,31,37z"/>
	<path class="st2" d="M20.8,37.3c0.3,0,0.4,0.1,0.4,0.3c0,0.2-0.1,0.4-0.4,0.3C20.8,37.7,20.8,37.5,20.8,37.3z"/>
	<path class="st3" d="M33.4,38.5c-0.1,0-0.3,0-0.4,0c0,0,0,0,0,0c0.4-0.2,0.5-0.5,0.3-0.9c0,0,0,0,0.1,0
		C33.9,37.9,33.7,38.2,33.4,38.5z"/>
	<path class="st3" d="M20,1.4c-0.3,0-0.5,0-0.8,0c-0.4-0.1-0.7,0-1.1,0.1c0-0.1,0.1-0.2,0.1-0.2C18.9,1.4,19.5,1.2,20,1.4z"/>
	<path class="st5" d="M18.2,1.6c0.4-0.1,0.7-0.2,1.1-0.1c0,0.1,0,0.1-0.1,0.2C18.8,1.7,18.5,1.7,18.2,1.6
		C18.1,1.6,18.1,1.6,18.2,1.6z"/>
	<path class="st2" d="M28.9,34.6c-0.3-0.2-0.3-0.5,0-0.7C29.1,34.1,29.1,34.4,28.9,34.6z"/>
	<path class="st1" d="M1.9,33.3c-0.1,0-0.2,0-0.3,0C2,32.9,2.5,33,3,33c0,0,0,0.1,0,0.1c0,0-0.1,0-0.1,0c-0.2,0-0.4-0.1-0.6,0.1
		C2.1,33.2,2,33.2,1.9,33.3L1.9,33.3z"/>
	<path class="st3" d="M31.9,14.4c-0.3-0.2-0.1-0.5-0.1-0.7c0.1,0,0.1-0.1,0.2-0.1C32,13.8,32.1,14.1,31.9,14.4z"/>
	<path class="st2" d="M7.5,22.2c0,0,0.1-0.1,0.1-0.1c0.1,0,0.3,0,0.3,0.2c0,0.2-0.2,0.2-0.4,0.2C7.4,22.4,7.5,22.3,7.5,22.2z"/>
	<path class="st2" d="M7.6,22.7c0.3,0.2,0.5,0.3,0.1,0.6c0,0,0,0,0,0c0,0-0.1-0.1-0.1-0.1C7.6,23,7.6,22.9,7.6,22.7z"/>
	<path class="st5" d="M10.5,2.2c0.2,0,0.4,0,0.6,0c0,0,0,0,0.1,0.1c-0.2,0.1-0.4,0.3-0.6,0.3C10.4,2.4,10.4,2.3,10.5,2.2
		C10.4,2.2,10.4,2.2,10.5,2.2z"/>
	<path class="st2" d="M36.1,35.4c0-0.1,0-0.1,0-0.2c0-0.2-0.2-0.4-0.1-0.6C36.2,34.9,36.6,35.1,36.1,35.4z"/>
	<path class="st3" d="M7.5,10c0.5,0,0.1,0.4,0.2,0.5c0,0,0,0,0,0c-0.1,0-0.1,0-0.2,0C7.5,10.3,7.5,10.1,7.5,10z"/>
	<path class="st3" d="M7.7,9.6C7.4,9.4,7.6,9,7.6,8.7c0,0,0.1-0.1,0.1-0.1C7.7,8.9,7.7,9.3,7.7,9.6L7.7,9.6z"/>
	<path class="st2" d="M28.8,33.7c-0.1,0.1-0.2,0.1-0.4,0.1c0-0.2,0-0.3,0.3-0.3C28.8,33.5,28.8,33.6,28.8,33.7z"/>
	<path class="st2" d="M28.4,35.3c-0.1,0-0.3,0.1-0.3-0.1c0-0.2,0.1-0.3,0.3-0.3C28.5,35.1,28.2,35.2,28.4,35.3z"/>
	<path class="st2" d="M9.3,3.2C9.4,3,9.4,2.8,9.7,2.7c0,0,0,0,0,0c0,0.1,0,0.3,0,0.4C9.6,3.1,9.4,3.2,9.3,3.2L9.3,3.2z"/>
	<path class="st2" d="M8.9,3.6c0-0.2,0.2-0.3,0.4-0.5c0,0,0,0,0,0C9.3,3.4,9.3,3.6,8.9,3.6L8.9,3.6z"/>
	<path class="st2" d="M10.3,13.6c0.2-0.2,0.3,0,0.4,0.1c0.1,0.1-0.1,0.1-0.2,0.1C10.4,13.8,10.3,13.7,10.3,13.6z"/>
	<path class="st3" d="M23.2,6.2c-0.2,0-0.4-0.1-0.4-0.2c0-0.1,0.1-0.1,0.2-0.1C23.1,5.9,23.1,6.1,23.2,6.2z"/>
	<path class="st3" d="M30.3,36.8c0-0.1,0-0.2,0-0.3c0.2,0,0.3,0.1,0.4,0.3c0,0,0,0.1-0.1,0.1c-0.1,0-0.2,0-0.2,0
		C30.4,36.9,30.3,36.9,30.3,36.8L30.3,36.8z"/>
	<path class="st2" d="M7.7,24.1c0.2,0,0.3,0.2,0.4,0.2c-0.1,0.1-0.2,0.1-0.2,0.2c0-0.1-0.1-0.2-0.3-0.3C7.6,24.2,7.6,24.1,7.7,24.1z
		"/>
	<path class="st2" d="M32,13.6c-0.1,0-0.1,0.1-0.2,0.1c0-0.1-0.1-0.3,0.1-0.4c0.1-0.1,0.1,0.1,0.2,0.2C32,13.5,32,13.5,32,13.6z"/>
	<path class="st3" d="M28.4,32c0-0.2,0.2-0.3,0.4-0.5c0,0.1,0,0.2,0,0.3C28.7,31.9,28.6,31.9,28.4,32z"/>
	<path class="st2" d="M10.4,2.2c0,0.1,0,0.2,0,0.2c0,0,0,0,0,0c-0.2,0-0.3,0-0.5,0l0,0C10,2.2,10.2,2.2,10.4,2.2z"/>
	<path class="st2" d="M13.9,36.9c0-0.1,0-0.3,0.1-0.3c0.2,0,0.1,0.2,0.1,0.3C14.1,36.9,14,36.9,13.9,36.9z"/>
	<path class="st2" d="M28.8,31.7c0-0.1,0-0.2,0-0.3c0,0,0.1-0.1,0.1-0.1c0.1,0,0.2,0,0.3,0C29.1,31.5,28.9,31.6,28.8,31.7z"/>
	<path class="st2" d="M8.6,12.1c0.2,0,0.4,0,0.3,0.2C8.8,12.3,8.6,12.3,8.6,12.1z"/>
	<path class="st3" d="M30.4,22.8c-0.1,0-0.1,0-0.2-0.1c0.1-0.1,0.2-0.2,0.3-0.3c0,0,0.1,0.1,0.1,0.1C30.6,22.7,30.5,22.7,30.4,22.8z
		"/>
	<path class="st2" d="M8.8,7.9c0.2,0.2,0,0.2-0.1,0.2C8.7,8.1,8.7,7.9,8.8,7.9z"/>
	<path class="st1" d="M27.8,38.9c0.1-0.2,0.3-0.1,0.5-0.1C28.2,39,28,38.8,27.8,38.9z"/>
	<path class="st2" d="M9.3,16.3c0.1,0,0.1,0.1,0.1,0.2c-0.1,0.1-0.1,0-0.2-0.1C9.2,16.4,9.3,16.4,9.3,16.3z"/>
	<path class="st2" d="M10.3,15.3c0,0.2-0.1,0.2-0.3,0.2C10,15.4,10.1,15.3,10.3,15.3z"/>
	<path class="st2" d="M28.4,35c0-0.2,0.1-0.2,0.3-0.2C28.7,34.9,28.6,35,28.4,35z"/>
	<path class="st3" d="M8.1,8.5C8,8.6,7.8,8.6,7.7,8.6c0,0,0.1-0.1,0.1-0.1C7.9,8.5,8,8.5,8.1,8.5z"/>
	<path class="st2" d="M29.4,36c-0.1,0-0.3,0-0.3-0.1C29.2,35.9,29.4,35.8,29.4,36z"/>
	<path class="st2" d="M8.7,7.2c0.2,0.2,0,0.2-0.1,0.2c0,0,0,0,0,0C8.6,7.4,8.7,7.3,8.7,7.2z"/>
	<path class="st1" d="M8.7,7.2c0,0.1-0.1,0.2-0.1,0.2c-0.1,0-0.1-0.1-0.1-0.2c0,0,0,0,0,0C8.5,7.2,8.6,7.2,8.7,7.2
		C8.7,7.2,8.7,7.2,8.7,7.2z"/>
	<path class="st2" d="M27.8,24c0-0.1,0-0.2,0-0.2c0.2,0,0.1,0.1,0.1,0.2C27.9,24,27.9,24,27.8,24z"/>
	<path class="st2" d="M36,34.7c-0.1,0.1-0.2,0-0.3-0.1C35.9,34.6,36,34.6,36,34.7z"/>
	<path class="st2" d="M35.8,34.6c-0.1,0-0.2,0-0.3-0.1C35.6,34.5,35.7,34.4,35.8,34.6z"/>
	<path class="st3" d="M24.1,7c-0.1,0-0.2,0-0.2-0.2C24,6.9,24.1,6.9,24.1,7z"/>
	<path class="st2" d="M8.1,8.5c-0.1,0-0.2,0-0.3,0c0-0.1,0.2-0.1,0.3-0.1C8.1,8.4,8.1,8.4,8.1,8.5z"/>
	<path class="st2" d="M9.3,12.8C9.4,12.8,9.4,12.8,9.3,12.8C9.4,12.9,9.3,12.8,9.3,12.8z"/>
	<path class="st2" d="M29.2,25.4c0,0-0.1-0.1-0.1-0.1C29.1,25.2,29.2,25.3,29.2,25.4z"/>
	<path class="st2" d="M15.2,1.8c0,0,0.1,0.1,0.1,0.1c0,0,0,0,0,0C15.2,1.9,15.1,1.9,15.2,1.8C15.2,1.8,15.2,1.8,15.2,1.8z"/>
	<path class="st2" d="M9.8,2.6c0,0,0.1-0.1,0.1-0.1c0,0,0,0,0,0C9.9,2.5,9.9,2.6,9.8,2.6L9.8,2.6z"/>
	<path class="st2" d="M9.7,2.7c0,0,0.1-0.1,0.1-0.1c0,0,0,0,0,0C9.8,2.6,9.7,2.7,9.7,2.7C9.7,2.7,9.7,2.7,9.7,2.7z"/>
	<path class="st2" d="M29,25.1c0,0-0.1-0.1-0.1-0.1C29,25,29.1,25,29,25.1z"/>
	<path class="st2" d="M28.8,24.8c0,0-0.1-0.1-0.1-0.1C28.7,24.7,28.8,24.7,28.8,24.8z"/>
	<path class="st1" d="M12.5,36.6c0,0,0.1,0.1,0.1,0.1C12.6,36.6,12.6,36.6,12.5,36.6z"/>
	<path class="st2" d="M7.8,18.5c0,0,0,0.1,0,0.1c0,0-0.1,0-0.1,0c0,0,0,0,0,0C7.7,18.6,7.8,18.6,7.8,18.5z"/>
	<path class="st1" d="M12.7,36.7c0,0,0.1,0.1,0.1,0.1C12.7,36.8,12.7,36.7,12.7,36.7z"/>
	<path class="st2" d="M8.4,17.8c0,0-0.1,0.1-0.1,0.1C8.3,17.9,8.4,17.9,8.4,17.8z"/>
	<path class="st1" d="M7.5,10.5c0.1,0,0.1,0,0.2,0C7.6,10.7,7.5,10.6,7.5,10.5z"/>
	<path class="st2" d="M24.2,7.2c0,0-0.1-0.1-0.1-0.1C24.2,7.1,24.2,7.1,24.2,7.2z"/>
	<path class="st2" d="M8.2,11c0,0,0.1,0.1,0.1,0.1C8.3,11.1,8.2,11.1,8.2,11z"/>
	<path class="st2" d="M9.6,16.1c0,0-0.1,0.1-0.1,0.1C9.5,16.2,9.5,16.1,9.6,16.1z"/>
	<path class="st1" d="M7.6,23.2c0,0,0.1,0.1,0.1,0.1C7.6,23.3,7.6,23.2,7.6,23.2z"/>
	<path class="st2" d="M28.2,33.2c0,0-0.1-0.1-0.1-0.1C28.1,33.1,28.2,33.2,28.2,33.2z"/>
	<path class="st6" d="M24.2,25.4c0.9,0.1,1.2-0.2,0.9-0.9c-0.1-0.3,0-0.3,0.2-0.4c0.4-0.1,0.8-0.3,1.2-0.4c0.3-0.1,0.4,0,0.3,0.3
		c0,0.3-0.2,0.6-0.3,0.9c0,0,0,0,0,0c-0.2,0.2-0.4,0.4-0.4,0.7l0,0c-0.2,0.1-0.3,0.3-0.4,0.5c0,0,0,0.1-0.1,0.1
		c0,0.1-0.1,0.1-0.1,0.2c-0.2,0.3-0.4,0.6-0.7,0.9c-1.4,1.8-3.2,2.9-5.6,2.9c-0.6,0-1.3-0.1-1.9,0.1c-0.2,0-0.4,0-0.6-0.1
		c-0.3-0.2-0.6-0.2-0.9-0.2c-1.4,0-2.8-0.2-4.2-0.4c-0.1,0-0.3-0.1-0.4,0.1c-1.8-0.9-2.8-2.3-3.2-4.2c1.2,0.3,2.3,0.2,3.4,0.3
		c0.2,0,0.5,0.2,0.5-0.2c0,0,0,0,0,0c0.1,0.5,0.5,0.2,0.8,0.2c0,0,0.1,0,0.1,0c1,0.2,1.9,0.1,2.9,0.1c0.2,0,0.1-0.1,0.1-0.2
		c1,0.1,2,0.1,3,0c-0.1,0.2-0.1,0.3,0.1,0.3c0.8,0,1.6,0,2.4-0.1c0.2,0,0.4-0.1,0.2-0.3c0,0,0.1,0,0.1,0c-0.2,0.5,0.3,0.2,0.4,0.2
		l0.1,0l0.1,0c0.4-0.1,0.9,0,1.2-0.2c0,0,0.1,0,0.1,0C23.8,25.5,24,25.6,24.2,25.4L24.2,25.4z"/>
	<path class="st6" d="M21.2,34.2c-0.5,0-1.1,0.1-1.6,0.2c-0.2,0-0.4,0.1-0.4,0.3c0,0.3,0.2,0.3,0.5,0.3c1,0,2-0.1,3-0.2
		c0.1,0,0.2,0,0.5-0.1c-0.5,0.6-0.8,1-1.6,1.1c-2.5,0.3-4.9,0.6-7.4,0.3c-0.1,0-0.2,0-0.3,0c-1.4-0.2-1.8-0.3-1.4-1.8
		c0.3-1.1,0.4-2.2,0.6-3.4c1,0.3,2,0.5,3.1,0.4c0.2,0,0.3,0,0.5,0c0.5,0,0.9-0.1,1.4-0.1c1.3,0.1,2.4,0.4,3.2,1.5
		c0.1,0.1,0.1,0.2,0.3,0.3c0.1,0.1-0.1,0.4,0.2,0.5l0,0c-0.3,0.1-0.1,0.3-0.2,0.5C21.4,34.2,21.3,34.2,21.2,34.2z"/>
	<path class="st7" d="M30.3,36.8C30.3,36.8,30.3,36.9,30.3,36.8c0,0.1,0.1,0.2,0.1,0.2c0.1,0.1,0.1,0.3,0.4,0.1c0,0-0.1,0-0.1,0.1
		c0,0,0,0.1,0,0.1c0,0,0,0.1,0.1,0.1c0.1,0.5-0.2,0.6-0.6,0.7c-0.5,0-1,0-1.5-0.1c-0.4-0.3-0.7-0.6-0.9-1c0.1,0,0.2-0.1,0.3-0.3
		c0,0-0.1-0.1-0.1-0.1c-0.1,0.1-0.2,0.2-0.1,0.3c-0.3-0.1-0.5-0.3-0.9-0.2c0.3,0.3,0.7,0.5,0.9,0.9c0.1,0.1,0.2,0.3,0,0.4
		c-0.8,0.2-1.6,0.3-2.4,0.1c-0.3-0.1-0.6-0.2-0.7-0.5c0,0,0-0.1,0-0.1c0-0.1,0-0.1,0-0.2c0,0,0-0.1,0-0.1c0-0.1,0.1-0.2,0.1-0.3
		c0.1-0.2,0.2-0.3,0.3-0.5c0.1-0.1,0.2-0.1,0.3-0.3c-0.2,0-0.3,0.1-0.3,0.2c-0.2,0.1-0.4,0.3-0.5,0.6c-0.3,0.3,0,0.9-0.4,1.1
		c-0.4,0.2-0.8,0-1.2,0c-0.1,0-0.2,0-0.2,0c-0.5-0.1-1.1-0.1-1.3-0.6c-0.2-0.5,0.4-0.9,0.7-1.2c1.3-0.9,2-2.2,2.8-3.4
		c0.2,0,0.3-0.1,0.5,0c0.2,0.4,0.6,0.4,0.9,0.2c0.4-0.2,0.7-0.1,0.6,0.4c0,0.4,0.2,0.7,0.5,1c0,0,0,0,0,0c0,0.5,0.2,1,0.7,1.2
		C28.9,36.2,29.6,36.5,30.3,36.8z M28.1,36.7c0.4-0.1,0.6-0.1,0.9-0.2C28.7,36.4,28.4,36.3,28.1,36.7z"/>
	<path class="st8" d="M21.5,33.1c-0.2,0-0.2-0.1-0.3-0.3c-0.7-1.1-1.9-1.4-3.2-1.5c-0.5,0-0.9,0.1-1.4,0.1c0-0.2,0-0.2-0.2-0.2
		c-1.8-0.2-3.6-0.6-5.1-1.7c0.1-0.2,0.2-0.1,0.4-0.1c1.4,0.2,2.8,0.4,4.2,0.4c0.3,0,0.7,0,0.9,0.2c0.2,0.1,0.4,0.1,0.6,0.2
		c0.7,0.2,1.4,0.1,2.1,0.1c1.3,0,2.6-0.1,3.6-1c0.2-0.2,0.5-0.2,0.8-0.2c0.4-0.1,0.5,0,0.5,0.4c0,0.9,0.1,1.8,0.4,2.7
		c0,0.1,0,0.2,0,0.2c-0.2,0.3-0.3,0.2-0.4-0.1c-0.5-1.2-1.2-1.1-2.1-0.6c-0.1,0-0.2,0.1-0.1,0.2l0,0c-0.1-0.2-0.2,0-0.3,0.1
		C21.6,32.5,21.5,32.8,21.5,33.1z"/>
	<path class="st2" d="M21.5,24.9c0,0.1,0,0.1,0,0.2c-0.2,0.1-0.5,0.1-0.7,0.1c-0.7-0.1-1.3-0.1-2-0.1c-1.7-0.1-3.5,0-5.2-0.1
		c-1,0-1.9-0.3-2.9-0.2c0-0.2,0.1-0.3,0.1-0.4c0.3,0.1,0.7,0.1,1,0c2-0.3,3.9-0.5,5.9-0.5c0.2,0,0.5,0.2,0.5-0.2
		c0-0.5-0.3-0.3-0.5-0.3c-2.3-0.1-4.5,0-6.7,0.4c-0.1-0.2,0-0.2,0.1-0.3c0.1,0,0.1,0,0.2,0c0.2,0,0.3,0,0.4-0.1c0.3,0,0.5,0,0.8-0.1
		c0.1,0,0.3,0,0.4-0.1c0.4,0,0.8,0,1.1-0.1c0.4,0,0.8,0,1.2,0c0.8,0,1.5,0,2.3,0l0.1,0l0.1,0c0.5,0.1,1,0.1,1.3-0.5
		c0.2-0.4,0.7-0.6,1.2-0.7c0.8-0.2,1.5,0.1,2.2,0.3c0.7,0.2,1.3-0.2,1.8-0.5c0.4-0.3,0-0.8-0.1-1.1c-0.5-1-1-1.9-1.7-2.8
		C22,17.4,22,17.2,21.9,17c-0.1-0.5,0.2-0.1,0.3-0.1c0.1,0.2,0.3,0.4,0.4,0.6c0.5,0.9,1.3,1.7,1.5,2.6c0.3,1,0.8,1.4,1.8,1.5
		c0,0,0.1,0,0.1,0c0,0,0.1,0.1,0.1,0.1c0,0.4-0.2,0.2-0.4,0.2c-1-0.2-2-0.1-2.8,0.5c-0.4,0-0.8-0.1-1.2-0.2c-0.5-0.2-1-0.3-1.5-0.2
		c-0.9,0.1-1.2,0.8-1.6,1.4c-0.1,0.1-0.1,0.3,0.1,0.4c0.3,0.1,0.2-0.1,0.3-0.2c0.1-0.1,0.1-0.4,0.4-0.4c0.1,0.2-0.1,0.3-0.1,0.4
		c-0.3,0.5-0.2,0.8,0.3,1.2c0.2-0.2,0-0.6,0.4-0.7c0,0.1,0,0.1,0,0.2c0,0.2-0.1,0.4,0.1,0.5c0.3,0.1,0.4-0.2,0.5-0.3
		c0.2-0.2,0.1-0.5,0.5-0.5c0.1,0.2,0,0.4-0.1,0.6C20.9,24.8,21.1,25,21.5,24.9z M18.9,24.6c-0.7-0.5-3.3-0.5-5,0
		C15.6,24.6,17.3,24.5,18.9,24.6z"/>
	<path class="st7" d="M8.2,32.4c0.1-0.1,0.3-0.1,0.3-0.2c0-0.9,0.6-0.5,1.1-0.5c0.2,0,0.3,0,0.5,0c0,0.1-0.1,0.3,0,0.3
		c0.8-0.1,0.3,0.4,0.3,0.6c0,0.2-0.1,0.3,0,0.5c0.2,0.3,0.1,0.5-0.2,0.7c-0.3-0.1-0.5-0.1-0.8-0.2c-0.4,0-0.9-0.1-1.2,0.3l0,0
		c-0.3-0.1-0.4,0.1-0.5,0.2c-0.2,0.1-0.4,0.3-0.5,0.5c-0.4,0.6-1,0.7-1.6,0.7c-0.4,0-0.8-0.1-1.2-0.1c-0.7,0-0.8-0.1-0.4-0.7
		c0.1-0.1,0.1-0.2,0.2-0.3c0.6-0.4,1.3-0.5,2-0.6c0.5-0.1,1-0.1,1.3-0.4C6.1,33.2,5,33.2,4,33.9c-0.2-0.2-0.7-0.2-0.6-0.7
		c0.6-0.7,1.4-0.7,2.3-0.5c0.3,0,0.6,0.1,0.9,0.1c0.6,0,1.3-0.3,2,0.2C8.5,32.7,8.1,32.7,8.2,32.4C8.2,32.4,8.2,32.4,8.2,32.4z"/>
	<path class="st9" d="M10.7,24.7c1,0,1.9,0.2,2.9,0.2c1.7,0.1,3.5,0,5.2,0.1c0.7,0,1.3,0.1,2,0.1c0.3,0,0.5,0,0.7-0.1
		c0.8-0.4,1.7-0.4,2.6-0.7c0,0,0.1,0,0.1,0c0.2-0.1,0.4,0.1,0.5,0.2c0.2,0.2,0.3,0.4-0.1,0.5c-0.2,0-0.5,0-0.4,0.3c0,0,0,0,0,0
		c0.1-0.3-0.1-0.2-0.3-0.2c-0.1,0.1-0.5-0.1-0.3,0.3c0,0-0.1,0-0.1,0c0-0.1,0-0.1,0-0.1c-0.4,0-0.8,0-1.2,0.1c-0.1,0-0.1,0.2,0,0.2
		l-0.1,0c0,0-0.1,0-0.1,0c0.2-0.5-0.3-0.2-0.4-0.2c0,0-0.1,0-0.1,0c-0.9,0-1.8,0.1-2.7,0.1c-1,0.1-2,0.1-3,0c-0.9,0-1.8-0.1-2.7-0.1
		c-0.1,0-0.5-0.2-0.3,0.2c0,0-0.1,0-0.1,0c-0.1-0.5-0.5-0.2-0.8-0.2c0,0,0,0,0,0c-0.2-0.2-0.5-0.1-0.8-0.1
		C10.5,25.4,10.4,25.2,10.7,24.7z"/>
	<path class="st5" d="M9.9,31.4c-0.1,0-0.2,0.1-0.3,0.1c0,0-0.1,0-0.1,0c-1,0.1-1-0.7-1.2-1.2c-0.2-0.4-0.4-0.9-0.4-1.4
		c0-0.3-0.1-0.5-0.1-0.8c0.3,0,0.7,0.1,1,0.1c0.7,0.5,1.2,1.1,1.9,1.6c0.4,0.3,0.3,0.8-0.1,1.1C10.4,31.1,10.2,31.2,9.9,31.4z"/>
	<path class="st9" d="M11,23.6c2.2-0.4,4.5-0.5,6.7-0.4c0.2,0,0.6-0.1,0.5,0.3c0,0.4-0.3,0.2-0.5,0.2c-2,0-4,0.1-5.9,0.5
		c-0.3,0.1-0.7,0-1,0c-0.1-0.2,0.2-0.6-0.2-0.7c0,0,0,0,0,0C10.6,23.9,10.8,23.7,11,23.6L11,23.6z"/>
	<path class="st10" d="M10.2,33.7c0.3-0.2,0.4-0.4,0.2-0.7c-0.1-0.2-0.1-0.3,0-0.5c0-0.2,0.5-0.7-0.3-0.6c-0.1,0,0-0.2,0-0.3
		c0,0,0-0.1,0-0.1c0.1,0,0.2-0.1,0.3-0.1c0.3-0.1,0.7-0.6,0.7,0.3c0,0.5,0.4,0.9,0.6,1.3c0.1,0.2,0.2,0.3,0.3,0.5
		c0.1,0.3,0.2,0.7-0.2,0.9c-0.4,0.2-0.8,0.4-1.2-0.1c0,0,0,0,0,0C10.7,34,10.2,34,10.2,33.7z"/>
	<path class="st7" d="M10.7,34.3C10.7,34.3,10.7,34.3,10.7,34.3c0,0.1,0,0.1-0.1,0.2c-0.1,0.2-0.2,0.4-0.3,0.5
		c-0.3,0.1-0.6,0.2-0.9,0.2c-0.1,0-0.1,0-0.2,0.1c-0.5,0-1,0-1.5,0c-0.7,0-0.7,0-0.4-0.6c0.1-0.3,0.4-0.4,0.6-0.7
		c0.1-0.1,0.3,0,0.2-0.2c0,0,0,0,0,0c0.8-0.1,1.6-0.1,2.3,0.5C10.5,34.4,10.6,34.3,10.7,34.3z"/>
	<path class="st8" d="M22.1,32.2c0.2,0.2,0.3,0,0.4-0.1c0.5-0.2,0.9-0.2,1.3,0.2c0.5,0.6,0.5,1.1,0.2,1.5c-0.3,0.5-0.8,0.6-1.4,0.7
		c0-0.1,0-0.2,0-0.2c0.3-0.3,0.2-0.6-0.2-0.7c0,0,0,0,0,0c-0.1-0.1-0.2-0.1-0.3-0.1c-0.1,0-0.1-0.2-0.3-0.1
		c-0.1-0.3,0.1-0.5,0.2-0.7C22.1,32.4,22.4,32.3,22.1,32.2L22.1,32.2z"/>
	<path class="st11" d="M10.6,23.5C10.6,23.5,10.6,23.5,10.6,23.5c0,0.3-0.1,0.5-0.2,0.8c-0.2,0.8-0.4,0.9-1.2,1c0,0-0.1,0-0.1,0
		c-0.3-0.1-0.7-0.2-1-0.3c-0.2-0.1-0.4-0.2-0.3-0.4c0.1-0.1,0.2-0.1,0.2-0.2c0,0,0,0,0,0c0.1,0,0.2,0,0.4,0c0.1,0,0.2,0.1,0.3,0
		c0.1,0.1,0.1,0.1,0.2,0c0.7-0.1,1.2-0.3,1.5-1c0.1-0.2,0.3-0.2,0.5-0.2l0,0c0.1,0,0.1,0.1,0.2,0.1c-0.1,0.1-0.3,0.2-0.1,0.3
		c0,0,0,0,0,0C10.9,23.4,10.7,23.5,10.6,23.5z"/>
	<path class="st12" d="M11.4,30.3c0.5,0,0.8,0.3,1.2,0.5c0.2,0.1,0.1,0.3,0.1,0.4c-0.1,0.4-0.1,0.8-0.2,1.2c0,0.1,0,0.2,0,0.2
		c-0.1,0.1,0,0.5-0.3,0.2c-0.2-0.2-0.4-0.5-0.5-0.8c0-0.1,0-0.1-0.1-0.1c0-0.1,0-0.1,0-0.2c0,0,0-0.1,0-0.1c0.1-0.2,0-0.3,0-0.5
		c0-0.1-0.1-0.1-0.1-0.2c0-0.1,0-0.3,0-0.4C11.4,30.4,11.4,30.4,11.4,30.3z"/>
	<path class="st7" d="M1.8,34.6c-0.3-0.3-0.2-0.6,0-0.9c0,0,0,0,0-0.1c0.1,0.1,0.1,0,0.2-0.1c0.1,0,0.3,0,0.4,0c0,0,0.1,0,0.1,0
		l0.1,0c0.4,0,0.7,0.3,1,0.5c0,0,0,0.1,0,0.1c-0.1,0.5-0.5,0.7-1,0.7c-0.1,0-0.1,0-0.2-0.1C2.2,34.7,2,34.6,1.8,34.6z"/>
	<path class="st11" d="M8.8,28.2c-0.3,0-0.7-0.1-1-0.1c-0.3-0.3-0.1-0.8-0.4-1.1c-0.1-0.6,0-1.3,0-1.9c0.3,0.2,0.2,0.5,0.3,0.8
		C8,26.7,8.4,27.5,8.8,28.2z"/>
	<path class="st7" d="M31.8,38.5c0.1-0.3-0.2-0.3-0.3-0.4c-0.3-0.2-0.4-0.4,0-0.6c0.2,0.1,0.4,0.1,0.6,0c0.1,0,0.3,0,0.4,0
		c0,0.2,0.2,0.2,0.3,0.1c0.5,0.4,0.2,0.5-0.2,0.6C32.3,38.3,31.9,38,31.8,38.5C31.8,38.5,31.8,38.5,31.8,38.5z"/>
	<path class="st2" d="M4,33.9c1-0.7,2.2-0.7,3.3-0.8c-0.4,0.4-0.9,0.3-1.3,0.4c-0.7,0.1-1.4,0.2-2,0.6C4,34.1,4,34,4,33.9z"/>
	<path class="st2" d="M27.8,37c0.2,0.4,0.5,0.7,0.9,1c-0.2,0.2-0.5,0.1-0.8,0.1c0.2-0.1,0.1-0.3,0-0.4c-0.2-0.4-0.6-0.6-0.9-0.9
		C27.3,36.8,27.6,37,27.8,37C27.8,37,27.8,37,27.8,37z"/>
	<path class="st3" d="M10.9,35.3c-0.3,0.5-0.8,0.4-1.3,0.5c-1,0.2-1.9,0.2-2.9,0C8.1,35.8,9.6,35.8,10.9,35.3z"/>
	<path class="st4" d="M22.6,34.3c0,0.1,0,0.2,0,0.2c-0.5,0.2-1.1,0.2-1.6,0.2c-0.1,0-0.1-0.1-0.1-0.2c0.1-0.1,0.3,0.2,0.4,0
		c0.1,0,0.1,0,0.2,0C21.8,34.4,22.2,34.3,22.6,34.3z"/>
	<path class="st2" d="M24.7,32.6c0-0.1,0-0.2,0-0.2c0.2,0,0.2-0.2,0.4-0.2c0.1,0.1,0.2,0.2,0.2,0.2c0.1,0.2,0.4,0.3,0.1,0.6
		c-0.2-0.1-0.3,0-0.5,0C25,32.8,25,32.6,24.7,32.6z"/>
	<path class="st3" d="M31.8,38.5C31.8,38.5,31.8,38.5,31.8,38.5c0.5,0,0.9,0,1.3,0c0,0,0,0,0,0c-0.5,0.2-1,0.1-1.6,0.1
		c-0.2,0-0.4-0.1-0.5-0.1c-0.1,0-0.2,0-0.4,0c0,0,0-0.1,0-0.1C31,38,31.3,38.4,31.8,38.5z"/>
	<path class="st2" d="M24.1,38.7c-0.5,0.1-1,0.2-1.5-0.1C23.1,38.5,23.6,38.5,24.1,38.7z"/>
	<path class="st3" d="M2.1,35.3c0-0.1-0.1-0.2-0.1-0.2c0.4,0,0.8,0.1,1.2,0.2C2.9,35.3,2.5,35.3,2.1,35.3z"/>
	<path class="st2" d="M32,37.5c-0.2,0.1-0.4,0.1-0.6,0c0.1-0.1,0.2-0.2,0.3-0.3c0.1,0,0.3,0,0.4,0C32,37.3,32,37.4,32,37.5z"/>
	<path class="st2" d="M10.3,35.1c0.1-0.2,0.2-0.4,0.3-0.5C10.9,34.9,10.9,35.1,10.3,35.1z"/>
	<path class="st2" d="M24.6,37.1c0.1-0.2,0.2-0.5,0.5-0.6c0,0,0.1,0.1,0.1,0.1c-0.1,0.2-0.2,0.3-0.3,0.5
		C24.8,37.1,24.7,37.1,24.6,37.1z"/>
	<path class="st3" d="M5.1,35.5c-0.4,0.2-0.8,0.2-1.2,0C4.3,35.5,4.7,35.5,5.1,35.5z"/>
	<path class="st2" d="M20.9,34.5c0,0.1,0,0.2,0.1,0.2c-0.1,0.1-0.3,0.2-0.4,0C20.5,34.6,20.7,34.5,20.9,34.5z"/>
	<path class="st2" d="M2.2,33.2c0.2-0.2,0.4-0.1,0.6-0.1c0,0.1-0.1,0.1-0.1,0.2c-0.1,0-0.3,0-0.4,0C2.3,33.3,2.3,33.2,2.2,33.2z"/>
	<path class="st2" d="M8.2,33.9c0.1,0.2-0.1,0.2-0.2,0.2c-0.1,0-0.2,0-0.3,0C7.8,34,7.9,33.8,8.2,33.9z"/>
	<path class="st2" d="M16.4,31.3c0.2,0,0.3,0,0.2,0.2c-0.2,0-0.3,0-0.5,0C16.2,31.4,16.3,31.3,16.4,31.3z"/>
	<path class="st3" d="M2.7,33.3c0-0.1,0.1-0.1,0.1-0.2c0,0,0.1,0,0.1,0c0.1,0,0.2,0,0.2,0.1C3.1,33.2,2.9,33.3,2.7,33.3z"/>
	<path class="st2" d="M21.2,36.7c0.1,0,0.2-0.1,0.3-0.1c0,0.1-0.1,0.2-0.1,0.2C21.2,36.9,21.3,36.7,21.2,36.7z"/>
	<path class="st3" d="M2.2,33.2c0,0,0.1,0.1,0.1,0.1c-0.2,0-0.3,0-0.5,0C2,33.2,2.1,33.2,2.2,33.2z"/>
	<path class="st2" d="M21.5,34.4c-0.1,0-0.1,0-0.2,0c0-0.1,0-0.1-0.1-0.2c0.1,0,0.2-0.1,0.2-0.1C21.5,34.2,21.5,34.3,21.5,34.4z"/>
	<path class="st3" d="M11.4,35.3c-0.1,0.1-0.2,0.2-0.4,0C11.2,35.3,11.3,35.3,11.4,35.3z"/>
	<path class="st3" d="M5.5,35.6c-0.1,0.1-0.2,0.1-0.3,0C5.3,35.6,5.4,35.6,5.5,35.6z"/>
	<path class="st2" d="M12.4,32.6c0-0.1,0-0.2,0-0.2C12.6,32.5,12.5,32.6,12.4,32.6z"/>
	<path class="st2" d="M22.7,38.2c0.1,0,0.2,0,0.2,0C22.9,38.3,22.8,38.3,22.7,38.2z"/>
	<path class="st2" d="M1,33.6c-0.1,0-0.1,0.1-0.2,0.1c0-0.1,0-0.1,0.1-0.2C0.9,33.5,1,33.5,1,33.6z"/>
	<path class="st2" d="M2.5,33.5L2.5,33.5c-0.1,0-0.1,0-0.1,0C2.4,33.5,2.4,33.5,2.5,33.5z"/>
	<path class="st2" d="M3.5,34.1c0,0,0-0.1,0-0.1C3.5,34,3.5,34.1,3.5,34.1C3.6,34.1,3.5,34.1,3.5,34.1z"/>
	<path class="st2" d="M11.6,31.5c0,0,0,0.1,0,0.1C11.5,31.6,11.5,31.5,11.6,31.5C11.5,31.5,11.5,31.5,11.6,31.5z"/>
	<path class="st2" d="M2.4,34.7c0.1,0,0.1,0,0.2,0.1C2.5,34.8,2.4,34.8,2.4,34.7z"/>
	<path class="st2" d="M11.9,35.1C11.9,35,11.9,35,11.9,35.1C11.9,35,11.9,35,11.9,35.1C11.9,35.1,11.9,35.1,11.9,35.1z"/>
	<path class="st3" d="M3.4,35.4c0,0-0.1-0.1-0.1-0.1C3.3,35.3,3.3,35.4,3.4,35.4z"/>
	<path class="st2" d="M9.2,35.4c0.1,0,0.1,0,0.2-0.1C9.4,35.3,9.3,35.3,9.2,35.4z"/>
	<path class="st2" d="M9.1,25.2c0,0,0.1,0,0.1,0C9.2,25.2,9.1,25.2,9.1,25.2z"/>
	<path class="st2" d="M11.6,31.8c0.1,0,0.1,0,0.1,0.1C11.6,31.9,11.6,31.9,11.6,31.8z"/>
	<path class="st2" d="M11.5,30.8c0,0.1,0.1,0.1,0.1,0.2C11.5,30.9,11.5,30.9,11.5,30.8z"/>
	<path class="st2" d="M11.4,30.3c0,0,0,0.1,0,0.1C11.4,30.4,11.4,30.4,11.4,30.3C11.4,30.4,11.4,30.3,11.4,30.3z"/>
	<path class="st2" d="M24.8,37.4c0,0,0,0.1,0,0.1C24.7,37.5,24.7,37.4,24.8,37.4z"/>
	<path class="st2" d="M24.7,37.7C24.7,37.7,24.7,37.8,24.7,37.7C24.7,37.8,24.7,37.7,24.7,37.7z"/>
	<path class="st2" d="M30.8,37.5C30.8,37.5,30.7,37.4,30.8,37.5C30.8,37.4,30.8,37.4,30.8,37.5C30.8,37.4,30.8,37.5,30.8,37.5z"/>
	<path class="st6" d="M23,15.1c0.4-0.1,0-0.2,0-0.3c-0.3-0.3-0.3-0.5,0-0.7c0.9-0.6,1.7-1.4,2.2-2.3c0.1-0.2,0.3-0.2,0.5-0.1
		c1.9,0.2,3.8,0.3,5.7,0c0,0.1,0.1,0.1,0.1,0.2c-0.3,1.5-0.3,3-0.5,4.5c-0.2,1.5-0.4,2.9-0.6,4.4c-0.3,1.6-1.7,1.8-3.1,1.7
		c-0.2,0-0.2-0.2-0.2-0.3c-0.1-1.9-1.2-3.4-2.2-5c-0.3-0.4-0.5-0.8-0.9-1.1c0,0,0,0,0,0c0-0.3-0.1-0.5-0.4-0.2l0,0c0,0,0,0,0,0
		c0.1,0.1,0.2,0,0.3-0.1c0,0,0-0.1-0.1-0.1c0,0-0.1-0.1-0.1-0.1C23.5,15.4,23.4,14.9,23,15.1L23,15.1z"/>
	<path class="st13" d="M22.2,4.9c0.1,0.4,0.1,0.8,0,1.2C22.1,6.2,22,6.4,22,6.6c0,0.2,0.1,0.1,0.2,0C22.4,6.9,22.7,7,23,7
		c0.3,0,0.4,0.1,0.6,0.2c0,0,0,0,0,0c0.1,0.3-0.4,0.5-0.1,0.8c0.8,0.9,1.1,1.9,1.1,3c0,0.2,0,0.4,0.3,0.5c-0.2,0.7-0.8,1.2-1.3,1.8
		c0,0-0.1,0-0.1,0.1c-0.3,0.2-0.6,0.3-0.9,0.5c-0.2-0.5,0.3-0.7,0.4-1c-0.3-0.1-0.5,0-0.7,0.1c-0.8,0.3-1.6,0.6-2.5,0.7
		c-1.5,0.2-2.9,0.4-4.4,0.3c-1.4-0.1-2.9-0.4-4.3-0.7c0,0-0.1-0.1-0.1-0.1c-0.1-0.4-0.4-0.4-0.7-0.6c-0.6-0.4-1.1-0.9-1.3-1.5
		c0.4,0,0.8,0.1,1.2,0.1c0,0,0.1,0,0.1,0c0.4,0,0.8,0.1,1.1,0.1c0,0,0.1,0,0.1,0l0.1,0c0.4,0,0.7,0,1.1,0c0,0,0.1,0,0.1,0l0.1,0
		c0.3,0,0.6,0.3,0.8-0.1c0,0,0,0,0,0c0.2,0.5,0.6,0.1,0.9,0.2c0.1,0.1,0.2,0.1,0.4,0c1,0.2,2,0,3,0c0.1,0,0.2,0,0.2,0
		c0.2,0,0.4,0,0.5-0.1l0.1,0l0,0c0.5,0,1,0,1.4-0.1c0.2,0,0.5,0,0.2-0.4c-0.1,0-0.2-0.1-0.3-0.1l0,0c-0.1-0.1-0.2-0.3-0.3-0.4
		c0-0.1,0.1-0.3,0.1-0.2c0.3,0.2,0.7,0,1,0.2c0,0,0.1,0,0.1,0.1c0,0,0,0,0,0c0.1-0.3-0.1-0.5-0.3-0.6c-0.3-0.3-0.7-0.4-1.2-0.5
		c0-0.1-0.1-0.1-0.1,0c-0.3,0-0.5,0-0.8,0c0-0.1,0-0.3,0-0.4c0.2-0.1,0.5-0.1,0.7-0.2c0.1,0,0.1,0,0.2-0.1c0,0,0.1,0,0.1,0
		c0.1,0,0.1,0.1,0.2,0.1l0,0c-0.1,0-0.2,0.1-0.1,0.2C20,9,20.1,9,20.2,8.9c0.5-0.2,0.9-0.3,1.4-0.5c0,0,0-0.1,0-0.1
		c-0.3,0-0.5,0-0.8,0c-0.1-0.1-0.1-0.1-0.2-0.2c0.4-0.4,0.7-0.8,0.8-1.4c0,0,0,0,0,0c0,0,0-0.1,0-0.1c0-0.2,0-0.3-0.1-0.5
		c0-0.1,0-0.2,0-0.3c0.2-0.1,0.3-0.2,0.4-0.4c0-0.1,0-0.3,0-0.4C21.8,4.9,22,4.9,22.2,4.9z"/>
	<path class="st5" d="M25.3,32.4c-0.1-0.1-0.2-0.2-0.2-0.2c-0.6-2-0.3-3.9,0.7-5.8c0-0.1,0-0.2-0.1-0.3c0,0,0-0.1,0.1-0.1
		c0.4,0,0.5-0.2,0.4-0.5c0,0,0,0,0,0c0.4-0.1,0.5-0.3,0.4-0.7c0,0,0,0,0,0c0.4,0.1,0.4-0.2,0.7-0.3c0,0,0,0,0.1,0
		c-0.1,0.2-0.1,0.4-0.2,0.7c-0.4,1.1-0.9,2.2-1.3,3.3c-0.2,0.6,0,1,0.8,1c0.4,0,0.9,0,1.3,0c0.5,0,0.9-0.1,1.2-0.5c0,0,0.1,0,0.1,0
		c0.1,0.7-0.3,1.3-0.6,2c-0.4,0.7-0.8,1.4-1.3,2.1c0-0.1,0-0.3-0.2-0.3c-0.6,0.1-1-0.3-1.5-0.5C25.4,32.3,25.4,32.3,25.3,32.4z"/>
	<path class="st11" d="M21.5,24.9c-0.4,0.1-0.6-0.1-0.5-0.4c0-0.2,0.2-0.4,0.1-0.6c-0.3,0.1-0.3,0.4-0.5,0.5
		c-0.1,0.1-0.2,0.4-0.5,0.3c-0.2-0.1-0.1-0.3-0.1-0.5c0-0.1,0-0.1,0-0.2c0-0.2,0.2-0.4,0.4-0.6c0.1,0,0.1,0,0.2-0.1c0,0,0,0,0,0
		c0,0-0.1,0.1-0.1,0.1c-0.3,0.1-0.6,0.2-1,0.1c0-0.1,0.2-0.3,0.1-0.4c-0.2,0-0.3,0.2-0.4,0.4c-0.1,0.1-0.1,0.4-0.3,0.2
		c-0.2-0.1-0.2-0.3-0.1-0.4c0.4-0.6,0.7-1.3,1.6-1.4c0.6,0.3,1.3,0.4,1.9,0.6c0.3,0.1,0.6,0,0.8-0.2c0.8-0.6,1.8-0.7,2.8-0.5
		c0.2,0,0.4,0.2,0.4-0.2c0.2,0,0.4,0.1,0.6,0.1c0.1,1.1,0.1,1.1-1,1.5c-1.1,0.4-2.3,0.7-3.5,0.8c-0.1,0-0.2,0-0.2,0.1
		C21.9,24.5,21.7,24.7,21.5,24.9z"/>
	<path class="st5" d="M11.2,13.2c1.4,0.3,2.8,0.6,4.3,0.7c1.5,0.1,2.9-0.1,4.4-0.3c0.9-0.1,1.7-0.4,2.5-0.7c0.2-0.1,0.4-0.2,0.7-0.1
		c-0.1,0.4-0.6,0.6-0.4,1c-0.3,0.2-0.6,0.3-0.4,0.7c-0.1,0-0.2,0-0.3,0c-0.2-0.2-0.4-0.1-0.5-0.1c-1.2,0.6-2.6,0.7-3.9,0.8
		c-1.1,0-2.2-0.2-3.2-0.4c-0.5-0.1-1-0.4-1.5-0.2C12.2,14.2,11.5,13.9,11.2,13.2z"/>
	<path class="st14" d="M27.6,10.1C27,10,26.4,9.9,25.8,9.9c-0.2,0-0.4-0.1-0.4-0.3c-0.1-0.4-0.3-0.9-0.5-1.2C24.9,8.2,25,8.2,25,8.2
		c2.1,0.1,4.3,0.2,6.4,0.4c0.3,0,0.6,0.1,0.9,0.3c0.6,0.3,0.6,0.6,0.1,1c-0.1,0-0.2,0-0.3,0.1C32,10,31.9,10,31.8,10
		C30.4,10.3,29,10.1,27.6,10.1z"/>
	<path class="st14" d="M32.5,10.1c0.5,0,0.3,0.3,0.2,0.5c-0.1,0.4-0.5,0.6-0.9,0.7c-0.8,0.2-1.7,0.3-2.5,0.2
		c-1.2-0.1-2.3-0.1-3.4-0.2c-0.8-0.1-0.2-0.6-0.3-0.9c-0.1-0.3,0.2-0.2,0.4-0.2c0.5,0,1,0,1.5,0.1c1.4,0.1,2.8,0.3,4.2,0
		c0.2,0,0.4,0,0.5-0.1C32.4,10.1,32.5,10.1,32.5,10.1z"/>
	<path class="st12" d="M21.9,14.5c0.1,0,0.2,0,0.3,0c0.3,0.1,0.4,0.5,0.8,0.6c0,0,0,0,0,0c0,0.3,0.2,0.3,0.4,0.5
		c0.1,0.1,0.2,0.2,0.2,0.3l0,0c0,0,0,0,0,0c0.1,0.1,0.1,0.5,0.4,0.2c0,0,0,0,0,0c-0.4,0.1-0.1,0.3,0,0.4c0.5,0.8,1.1,1.5,1.5,2.3
		c0.2,0.4,0.4,0.7,0.5,1.1c0,0.1,0,0.1,0.1,0.1c0,0,0.1,0.1,0.1,0.1c0,0,0,0.1,0.1,0.1c0.2,0.5,0.4,1,0.4,1.6
		c-0.2,0-0.4-0.1-0.6-0.1c0,0-0.1-0.1-0.1-0.1c0.2-0.1,0.1-0.3,0.1-0.5c-0.7-2.1-1.8-4-3.4-5.6C22.3,15.3,21.9,15,21.9,14.5z"/>
	<path class="st12" d="M29,26.1c0,0.1,0.1,0.1,0.1,0.2c0.2,0.9,0.3,1.7,0,2.6c0-0.4-0.6-0.5-0.5-0.9c0.2-1.3-0.4-2.4-1.3-3.4
		c0-0.1,0-0.1,0-0.2c0.1-0.2,0.2,0,0.3,0C28.2,24.9,28.7,25.4,29,26.1z"/>
	<path class="st12" d="M24.9,11.5c-0.3,0-0.3-0.2-0.3-0.5c0-1.1-0.3-2.2-1.1-3c-0.3-0.3,0.2-0.5,0.1-0.8c0.8,0.8,1.1,1.7,1.5,2.7
		c0,0,0,0.1,0,0.1C25.2,10.5,25.1,11,24.9,11.5z"/>
	<path class="st2" d="M31.8,10.3c-1.4,0.3-2.8,0.1-4.2,0c0-0.1,0-0.1,0-0.2c1.4,0.1,2.8,0.2,4.2,0C31.8,10.1,31.8,10.2,31.8,10.3z"
		/>
	<path class="st4" d="M31.5,19.8c-0.1,0-0.2,0-0.2,0c-0.1-1.1,0.3-2.2,0.2-3.4c0.3-0.1,0.3-0.1,0.3,0.2
		C31.9,17.7,31.6,18.8,31.5,19.8z"/>
	<path class="st12" d="M30.6,22.5c-0.1,0.1-0.2,0.2-0.3,0.3c-0.3,0.1-0.6,0.2-0.9,0c0,0,0,0,0-0.1c0.9-0.2,1.4-0.9,1.6-1.7
		c0.1,0,0.2-0.1,0.2-0.1c0,0.2,0,0.4,0,0.6C31,21.8,30.8,22.2,30.6,22.5z"/>
	<path class="st4" d="M30.9,8c0.6-0.2,1.1,0,1.6,0.2c0.1,0,0.3,0.1,0.2,0.3c-0.2,0-0.3-0.2-0.5-0.1c0,0-0.1,0-0.1,0
		C31.8,8.1,31.3,8.4,30.9,8z"/>
	<path class="st12" d="M23.6,7.2C23.4,7.1,23.3,7,23,7c-0.3,0-0.6-0.1-0.8-0.4c0,0,0-0.1,0-0.1c0.4-0.1,0.7-0.2,1,0.1
		C23.3,6.9,23.6,6.9,23.6,7.2z"/>
	<path class="st5" d="M28.4,7.7c0.3,0,0.6,0,0.9,0c0.3,0,0.4,0.1,0.4,0.4c-0.4,0-0.9,0-1.3,0c0-0.1,0-0.1,0-0.2
		C28.5,7.8,28.5,7.7,28.4,7.7z"/>
	<path class="st5" d="M29.3,22.7C29.3,22.8,29.3,22.8,29.3,22.7c-0.1,0.2-0.3,0.2-0.5,0.2c-0.5,0-1,0-1.4,0.3c0,0,0-0.1,0-0.1
		c0-0.1,0-0.2,0-0.3C28.1,22.8,28.7,22.8,29.3,22.7z"/>
	<path class="st3" d="M28.4,7.8c0,0.1,0,0.1,0,0.2c-0.6-0.2-1.2,0-1.8-0.2C27.3,7.8,27.9,7.8,28.4,7.8z"/>
	<path class="st2" d="M27.4,22.8c0,0.1,0,0.2,0,0.3c-0.1,0-0.3,0-0.3-0.1C27.1,22.9,27.3,22.8,27.4,22.8z"/>
	<path class="st2" d="M31.2,21C31.1,21,31,21,30.9,21c0-0.2-0.1-0.4,0.2-0.4C31.2,20.7,31.2,20.8,31.2,21z"/>
	<path class="st12" d="M31.7,15.2c0.3,0.2,0.2,0.4,0.1,0.6C31.8,15.6,31.8,15.4,31.7,15.2z"/>
	<path class="st2" d="M32.5,10.1c-0.1,0-0.1,0-0.2,0c-0.1-0.1-0.1-0.1-0.2-0.2c0.1,0,0.2,0,0.3-0.1C32.4,9.9,32.5,10,32.5,10.1z"/>
	<path class="st5" d="M31.9,14.5c0.1,0.1,0.2,0.2,0.1,0.3c-0.1,0.1-0.1-0.1-0.1-0.1C31.9,14.7,31.9,14.6,31.9,14.5z"/>
	<path class="st2" d="M31.3,20c0,0.2-0.1,0.2-0.2,0.2C31,20.1,31.1,20.1,31.3,20z"/>
	<path class="st5" d="M27.3,24.3c0,0.1,0,0.1,0,0.2c0,0-0.1,0-0.1,0c0,0,0,0-0.1,0C27.2,24.4,27.2,24.4,27.3,24.3z"/>
	<path class="st2" d="M22.1,24.3c0-0.1,0.1-0.1,0.2-0.1C22.3,24.3,22.2,24.3,22.1,24.3z"/>
	<path class="st2" d="M31.7,11.9c0-0.1-0.1-0.1-0.1-0.2C31.6,11.8,31.6,11.8,31.7,11.9z"/>
	<path class="st2" d="M32.2,8.4c0,0,0.1,0,0.1,0C32.2,8.4,32.2,8.4,32.2,8.4z"/>
	<path class="st2" d="M23.5,13.3C23.5,13.3,23.5,13.3,23.5,13.3C23.6,13.3,23.5,13.3,23.5,13.3z"/>
	<path class="st2" d="M24.2,24.4c0,0-0.1,0-0.1,0C24.1,24.4,24.2,24.3,24.2,24.4z"/>
	<path class="st2" d="M26.2,20c-0.1,0-0.1,0-0.1-0.1C26.1,20,26.2,20,26.2,20z"/>
	<path class="st2" d="M26.4,20.3c0,0,0-0.1-0.1-0.1C26.3,20.2,26.4,20.2,26.4,20.3C26.4,20.2,26.4,20.3,26.4,20.3z"/>
	<path class="st2" d="M25.1,10c0,0,0-0.1,0-0.1C25.1,9.9,25.1,9.9,25.1,10C25.2,10,25.1,10,25.1,10z"/>
	<path class="st15" d="M12.6,14.7c0.5-0.2,1,0.1,1.5,0.2c1.1,0.2,2.1,0.4,3.2,0.4c0.1,0.4,0.5,0.4,0.8,0.3c0.7-0.1,1.4-0.3,2.1-0.6
		c0.6-0.2,1.6,0.1,1.9,0.6c0.1,0.2,0.3,0.4,0.5,0.5c0.4,0.2,0.5,0.6,0.5,1c0,0.3-0.3,0.4-0.6,0.4c-0.1-0.2-0.3-0.4-0.4-0.6
		c0-0.2-0.1-0.3-0.2-0.4c-0.1-0.1-0.2-0.2-0.4-0.1c-0.2,0.1,0,0.2,0,0.4c0.1,0.7,0.3,1.3,0.9,1.8c0.3,0.2,0.4,0.6,0.4,0.9
		c0.1,0.5-0.8,1.2-1.4,1c-0.4-0.1-0.8-0.1-1,0.3c-0.2,0-0.3-0.1-0.5-0.1c-0.1-0.2-0.3-0.2-0.4-0.2c-0.5,0.3-1.1,0.5-1.4,1.1
		C18,22,17.8,22,17.4,21.9c-0.4-0.1-0.9-0.2-1.4,0c-0.4,0.2-0.9,0.3-1.3,0c-0.2-0.1-0.5-0.1-0.7,0c-0.6,0.3-1.3,0.5-2,0.6
		c-0.3,0-0.5,0.2-0.6,0.4l0,0c0,0,0-0.1,0-0.1c0-0.1,0-0.2,0-0.3c0-0.1,0-0.1,0-0.2c0-0.6,0.4-1.1,0.5-1.6c0.1-0.6,0.1-0.7-0.5-0.5
		c-0.2,0-0.4,0-0.6-0.1c0,0,0,0,0,0c0,0-0.1-0.1-0.1-0.1c0,0-0.1-0.1-0.1-0.1c0.4-1.7,1-3.3,2.2-4.6C13.1,15,12.8,14.9,12.6,14.7
		C12.7,14.8,12.7,14.8,12.6,14.7z"/>
	<path class="st11" d="M21.1,10.3c-0.3-0.2-0.7,0-1-0.2C20,10.1,20,10.3,20,10.4c-0.6-0.2-1.3-0.2-1.9-0.1c-3.2,0.2-6.5,0.1-9.6-0.6
		C8.3,9.5,8.2,9.4,8,9.3c0.3-0.1,0.4-0.2,0.1-0.4c0.5-0.2,1-0.1,1.5-0.1c0,0,0,0,0,0s0,0,0,0c0,0,0.1,0.1,0.1,0c0,0-0.1,0-0.1-0.1
		c0,0-0.1-0.1-0.1-0.1C9.6,8.4,9,8,9.9,8.1C10,8.1,10,8,10,7.9c0.1,0,0.1,0,0.2,0.1C10,8,9.9,8.1,10.1,8.2c0.2,0.1,0.4,0.1,0.6,0.1
		l0.1,0l0.1,0c0.1,0,0.2,0,0.2,0c0,0.1,0.1,0.2,0.1,0.2c0.1,0,0.2-0.1,0.2-0.2c0-0.1,0.1-0.2,0.1-0.3c0.4-1.3,0.7-1.5,2.1-1.2
		c0.1,0.2,0.3,0.4,0.5,0.4c0.2,0,0.4-0.2,0.4-0.4c0,0,0.1,0,0.1,0.1c0,0.4,0.2,0.7,0.5,1c0,0.1,0.1,0.2,0.3,0.2c0,0,0.1,0.1,0.1,0.1
		c0,0.1,0.1,0.1,0.2,0.1c0,0,0,0,0.1,0c0,0.1,0.1,0.2,0.3,0.2c0.9,0.4,1.9,0.3,2.9,0.3c0,0.1,0,0.3,0,0.4c-0.4,0.1-0.9,0.1-1.4,0.4
		c0.8,0,1.4,0,2.1,0C20.2,9.7,20.7,9.8,21.1,10.3z M12.8,8.2c-0.6-0.1-0.6-0.1-0.9,0.3C12.3,8.5,12.5,8.2,12.8,8.2z"/>
	<path class="st14" d="M10.2,8c0-0.1-0.1-0.1-0.2-0.1C9.1,7.6,8.8,6.8,8.8,6.1c0-1.9,1.6-3.3,4-2.5c0.3,0.1,0.6,0.3,0.9,0.5
		c0.2,0.2,0.3,0.2,0.4-0.1c0,0,0,0,0,0c-0.4,0.2-0.1,0.4,0,0.6c0.3,0.5,0.2,0.7-0.3,1c-0.5,0.4-0.7,0.2-0.9-0.2
		c-0.1-0.2-0.2-0.3-0.3-0.4c-0.8-0.7-2-0.6-2.5,0.2C9.7,6,9.9,7,10.7,7.5c0.2,0.1,0.6,0.1,0.5,0.4C11,8.2,10.6,8,10.3,8
		C10.3,8,10.2,8,10.2,8z"/>
	<path class="st11" d="M20.3,10.8C20.3,10.8,20.3,10.8,20.3,10.8C20.3,10.8,20.3,10.9,20.3,10.8C20,11.1,19.7,11,19.4,11
		c0,0-0.1,0-0.1,0c-1.8,0.1-3.5,0.3-5.3,0.1c-0.1,0-0.2,0-0.3,0.1c0,0,0,0,0,0c-0.4-0.2-0.8-0.2-1.2-0.2c0,0-0.1,0-0.1,0
		c-1.4-0.1-2.8-0.2-4.1-0.6c-0.1-0.3,0-0.5,0.4-0.4c0.3,0.1,0.6,0.1,0.8,0.2c3.1,0.5,6.2,0.6,9.3,0.3C19.4,10.5,19.9,10.5,20.3,10.8
		z"/>
	<path class="st2" d="M20.3,10.8c-0.4-0.3-0.9-0.3-1.5-0.3c-3.1,0.3-6.2,0.2-9.3-0.3c-0.3,0-0.6-0.1-0.8-0.2
		c-0.4-0.1-0.5,0.1-0.4,0.4c-0.5-0.1-0.5-0.3-0.1-0.6c0.1-0.1,0.2-0.1,0.2-0.2c3.2,0.7,6.4,0.8,9.6,0.6c0.6,0,1.3-0.1,1.9,0.1
		C20.1,10.5,20.2,10.7,20.3,10.8z"/>
	<path class="st5" d="M11.4,14.7c0,0,0.1-0.1,0.1-0.1c0,0,0-0.1,0-0.1c0.3,0.2,0.5,0.3,0.5,0.7c-1.2,1.1-1.6,2.6-2.1,4.1
		c0,0-0.1,0-0.1,0c-0.2-0.1-0.4-0.1-0.7-0.2c0.1-0.4,0.2-0.8,0.5-1c0.2-0.2,0.1-0.3-0.1-0.4c0-0.1,0.1-0.1,0.1-0.2
		c0.4-0.6,1.1-1.1,1.3-1.9c0,0,0-0.1,0-0.1c0,0,0.1-0.1,0.1-0.1c0.1-0.1,0.2-0.3,0.2-0.5c0,0,0,0,0,0C11.3,14.9,11.4,14.8,11.4,14.7
		z"/>
	<path class="st11" d="M14.1,4C14.1,4,14.1,4,14.1,4c-1-0.9-2.2-1.2-3.6-0.8c-0.2,0-0.3,0-0.1-0.2c0.3-0.3,0.6-0.5,1-0.5
		c1.2,0,2.4,0.3,3.3,1.1c0.1,0.1,0.2,0.2,0.4,0.2c0.3,0.4-0.2,0.6-0.3,0.9c0,0-0.1,0-0.1,0.1C14.5,4.5,14.4,4.2,14.1,4z"/>
	<path class="st12" d="M12.8,15.2c-1.2,1.3-1.8,2.9-2.2,4.6c-0.3-0.2-0.1-0.4-0.1-0.6c0.1-0.1,0.1-0.1,0.1-0.2
		c0.3-1.3,0.8-2.4,1.6-3.5c0,0,0-0.1,0.1-0.1C12.4,15.3,12.5,15,12.8,15.2C12.8,15.2,12.8,15.2,12.8,15.2z"/>
	<path class="st12" d="M9.1,11c0.2,0.7,0.7,1.1,1.3,1.5c0.2,0.2,0.6,0.2,0.7,0.6c-1.1-0.3-1.8-0.9-2.2-1.8C8.7,11.1,8.6,10.9,9.1,11
		z"/>
	<path class="st4" d="M8.9,3.6c0.3,0,0.4-0.2,0.4-0.5c0.1,0,0.2,0,0.4,0c0,0,0.1,0,0.1,0c0,0,0,0.1,0,0.1c-0.3,0.4-0.7,0.8-1,1.3
		c-0.3,0-0.3-0.1-0.2-0.3C8.7,4.1,9.1,3.9,8.9,3.6z"/>
	<path class="st3" d="M8.3,5.5C8.1,5.3,8.2,5,8.3,4.8c0.1-0.2,0.2,0,0.4,0C8.6,5.1,8.5,5.3,8.3,5.5z"/>
	<path class="st2" d="M8.2,8.8C8.4,9.1,8.3,9.2,8,9.3C7.9,9.1,8,9,8.2,8.8z"/>
	<path class="st2" d="M8.7,7.2c-0.1,0-0.2,0-0.2,0C8.5,7.1,8.5,7,8.7,7C8.7,7.1,8.7,7.1,8.7,7.2z"/>
	<path class="st2" d="M12.8,15.2C12.8,15.2,12.8,15.2,12.8,15.2c0-0.2-0.1-0.3-0.1-0.4C12.8,14.9,13.1,15,12.8,15.2z"/>
	<path class="st2" d="M12.2,15.4c0,0,0,0.1-0.1,0.1c-0.1-0.1-0.1-0.2-0.1-0.3C12.1,15.3,12.2,15.4,12.2,15.4z"/>
	<path class="st2" d="M11.6,14.5c0,0,0,0.1,0,0.1c-0.1-0.1-0.1-0.2,0-0.2C11.6,14.4,11.6,14.5,11.6,14.5z"/>
	<path class="st3" d="M7.7,9.6C7.7,9.7,7.7,9.7,7.7,9.6C7.7,9.7,7.7,9.7,7.7,9.6C7.7,9.6,7.7,9.6,7.7,9.6z"/>
	<path class="st2" d="M9.8,8.8L9.8,8.8C9.7,8.8,9.7,8.8,9.8,8.8C9.7,8.7,9.7,8.6,9.7,8.6C9.7,8.6,9.8,8.7,9.8,8.8
		C9.8,8.7,9.8,8.7,9.8,8.8z"/>
	<path class="st2" d="M10.4,11.2c0,0-0.1,0-0.1,0C10.3,11.2,10.4,11.2,10.4,11.2z"/>
	<path class="st2" d="M12.4,11c0,0,0.1,0,0.1,0C12.5,11.1,12.5,11.1,12.4,11z"/>
	<path class="st2" d="M11.7,11.3L11.7,11.3c-0.1,0-0.1,0-0.1,0C11.6,11.3,11.6,11.3,11.7,11.3z"/>
	<path class="st2" d="M12.9,11.4L12.9,11.4c-0.1,0-0.1,0-0.1,0C12.8,11.4,12.8,11.4,12.9,11.4z"/>
	<path class="st14" d="M15.7,4.2c0.1-0.1,0.1-0.2,0-0.3c0,0,0,0,0,0c0,0.2,0.1,0.3,0.2,0.2c0.9-0.5,1.8-0.3,2.7-0.2
		C18.8,4,18.9,4.1,19.1,4c0.1,0.2,0.2,0.2,0.4,0.2c0,0,0.1,0.1,0.1,0.1c0.1,0.1,0.2,0.2,0.4,0.2c0.1,0.1,0.3,0.3,0.5,0.4
		c0,0.2,0.1,0.3,0.2,0.4C20.8,5.6,20.9,5.8,21,6l0,0c0.1,1.1-0.4,1.8-1.5,2.3c-0.5,0.2-1,0.2-1.5,0.3c-1.4,0.1-2.6-0.5-3-1.5
		C14.6,6.3,14.8,4.9,15.7,4.2z M19.3,5.5c0,0-0.1-0.1-0.1-0.1c-0.8-0.6-1.8-0.7-2.5-0.2c-0.5,0.4-0.6,0.8-0.5,1.4
		c0.1,0.6,0.5,1.2,1.2,1.3c0.7,0.1,1.4,0,1.9-0.5c0.5-0.6,0.5-1.1,0-1.7C19.3,5.6,19.3,5.5,19.3,5.5z"/>
	<path class="st1" d="M15.7,4.2c-1,0.7-1.1,2.1-0.8,2.9c0.4,0.9,1.6,1.5,3,1.5c0.5,0,1-0.1,1.5-0.3C20.6,7.9,21.1,7.1,21,6
		c0.1,0,0.2,0.1,0.3,0.1c0,0.2,0,0.3,0.1,0.5c0,0,0,0.1,0,0.1c-0.1,0.5-0.4,1-0.8,1.4c-0.1,0.1-0.2,0.1-0.1,0.3c0,0,0,0,0,0
		c-0.1-0.1-0.2,0-0.3,0c-0.1,0.1-0.3,0.1-0.4,0.2c0,0-0.1,0-0.1,0c-0.1,0-0.1,0-0.2,0.1c-0.2,0.1-0.5,0.1-0.7,0.2
		c-1,0.1-1.9,0.1-2.9-0.3c-0.1-0.1-0.2-0.2-0.3-0.2c0,0-0.1,0-0.1,0c-0.1,0-0.2-0.1-0.2-0.1c0,0-0.1-0.1-0.1-0.1
		c0-0.2-0.1-0.2-0.3-0.2c-0.3-0.3-0.5-0.6-0.5-1c0,0,0-0.1,0-0.1C14.3,6.5,14.6,6,14.2,6c-0.4,0-0.5,0.4-0.6,0.8
		c0,0.1-0.1,0.1-0.1,0.2c-1.4-0.3-1.7-0.1-2.1,1.2c0,0.1-0.1,0.2-0.1,0.3c-0.1,0-0.2,0-0.3,0c-0.1,0-0.2,0-0.2,0
		c0-0.1-0.1-0.1-0.1,0c-0.2,0-0.4,0-0.6-0.1C9.9,8.1,10,8,10.2,8C10.2,8,10.3,8,10.3,8c0.3,0,0.7,0.2,0.8-0.1
		c0.1-0.3-0.3-0.3-0.5-0.4C9.9,7,9.7,6,10.1,5.3c0.5-0.8,1.7-1,2.5-0.2c0.1,0.1,0.3,0.2,0.3,0.4c0.2,0.5,0.4,0.6,0.9,0.2
		c0.5-0.4,0.6-0.5,0.3-1c-0.1-0.2-0.4-0.4,0-0.6c0.3,0.2,0.3,0.5,0.5,0.7c0,0,0.1,0,0.1-0.1c0-0.3,0.5-0.5,0.3-0.9
		c0.1,0,0.2-0.1,0.4-0.1c0,0,0,0,0,0s0,0,0,0C15.5,3.8,15.6,4,15.7,4.2z M10.9,5.6c0.2,0,0.3-0.2,0.3-0.4c0-0.2,0-0.3-0.3-0.3
		c-0.3,0-0.4,0.2-0.4,0.4C10.5,5.5,10.6,5.6,10.9,5.6z"/>
	<path class="st11" d="M20.7,5.3c-0.1-0.1-0.2-0.2-0.2-0.4c0.3-0.4-0.2-0.5-0.4-0.6c-0.1-0.1-0.2-0.2-0.4-0.2
		c-0.1,0-0.2-0.1-0.3-0.1c-0.2-0.1-0.3-0.3-0.4,0c-0.2,0.1-0.3,0-0.4-0.1c0.1-0.3-0.2-0.3-0.3-0.3c-0.9-0.2-1.9-0.3-2.7,0.3
		c0,0,0,0,0,0c0-0.6,0.5-0.8,0.9-1.1c0,0,0,0,0,0c0,0.1,0,0.2,0,0.2c0,0,0,0,0,0l0,0c0.7,0,1.4,0,2.1,0.1C20,3.3,20.8,4,21.4,5
		c0.1,0.2,0,0.5,0.3,0.5c-0.1,0.2-0.2,0.3-0.4,0.4c0,0-0.1,0-0.1,0c-0.1-0.2-0.1-0.4-0.2-0.6C20.8,5,20.7,5.1,20.7,5.3z M20.6,4.8
		C20.6,4.9,20.6,4.9,20.6,4.8C20.6,4.9,20.7,4.9,20.6,4.8C20.7,4.9,20.7,4.9,20.6,4.8C20.7,4.8,20.7,4.8,20.6,4.8z"/>
	<path class="st11" d="M22.2,4.9c-0.2,0-0.4,0-0.5,0.2c-0.4-1.1-1.2-1.8-2.4-2.2c-0.7-0.2-1.4-0.2-2.1-0.2c1.5-0.7,3.3-0.4,4.2,0.9
		c0.2,0.3,0.4,0.7,0.7,1C22.2,4.7,22.2,4.8,22.2,4.9z"/>
	<path class="st12" d="M22.1,4.7c-0.2-0.3-0.4-0.7-0.7-1c-1-1.3-2.7-1.7-4.2-0.9c-0.2,0.2-0.4,0.1-0.6,0.1c0,0,0,0,0,0
		c0.3-0.5,0.9-0.6,1.4-0.7c1.3-0.2,2.6,0,3.5,1.1C21.9,3.7,22.1,4.1,22.1,4.7z"/>
	<path class="st4" d="M13.2,2.4c-0.4-0.1-0.9-0.1-1.3-0.2c0.9-0.4,1.7-0.4,2.4,0.2C13.9,2.4,13.5,2.1,13.2,2.4z"/>
	<path class="st12" d="M20.6,2c0.6-0.1,0.9,0.3,1.3,0.6c0.1,0.1,0.2,0.2,0.3,0.3c0.1,0.2,0.1,0.4,0.2,0.6c-0.1,0.1-0.1,0.2-0.1,0.2
		C21.9,3.1,21.4,2.5,20.6,2z"/>
	<path class="st4" d="M15.2,1.8c0,0.1,0,0.1,0.1,0.1c0,0.1,0,0.3,0,0.5c-0.6-0.3-1.2-0.6-1.8-0.7c0-0.1,0-0.1,0-0.2
		C14,1.3,14.6,1.7,15.2,1.8z"/>
	<path class="st5" d="M13.2,2.4c0.4-0.3,0.8,0.1,1.1,0c0,0,0,0,0,0c0,0,0.1,0.1,0.1,0.1c0.1,0.1,0.3,0.2,0.4,0.3
		c0.1,0.2,0.4,0.3,0.3,0.6C14.5,3,13.9,2.6,13.2,2.4z"/>
	<path class="st15" d="M15.1,3.4c0.1-0.3-0.3-0.4-0.3-0.6c0.1-0.1,0.1-0.1,0.2-0.2c0.7,0.3,0.8,0.4,0.4,1c0,0,0,0,0,0
		C15.3,3.6,15.2,3.6,15.1,3.4z"/>
	<path class="st5" d="M9.8,3.2c0,0-0.1,0-0.1,0c0-0.1,0-0.3,0-0.4c0,0,0.1-0.1,0.1-0.1c0,0,0.1-0.1,0.1-0.1c0.2,0,0.3,0,0.5,0
		C10.2,2.7,10,2.9,9.8,3.2z"/>
	<path class="st5" d="M13.4,1.5c0,0.1,0,0.1,0,0.2c-0.4-0.1-0.8,0-1.1,0C12.6,1.3,13,1.5,13.4,1.5z"/>
	<path class="st4" d="M22.3,3.8c0-0.1,0-0.2,0.1-0.2c0.3,0.3,0.1,0.6,0.2,0.9C22.3,4.3,22.4,4,22.3,3.8z"/>
	<path class="st11" d="M15,2.7c-0.1,0.1-0.1,0.1-0.2,0.2c-0.1-0.1-0.3-0.2-0.4-0.3c0,0,0-0.1,0-0.1C14.6,2.4,14.8,2.5,15,2.7z"/>
	<path class="st11" d="M22.2,6.5C22.2,6.6,22.2,6.6,22.2,6.5C22.2,6.7,22,6.8,22,6.6c0-0.2,0.1-0.3,0.2-0.5
		C22.2,6.2,22.2,6.4,22.2,6.5z"/>
	<path class="st12" d="M20.2,1.9c0-0.1,0-0.1,0-0.2c0.2,0.1,0.4,0,0.4,0.3C20.5,2,20.3,2,20.2,1.9z"/>
	<path class="st5" d="M11,2.1C11.1,2.1,11.1,2,11.2,2c0,0,0.1,0,0.1,0.1C11.2,2.1,11.2,2.1,11,2.1C11.1,2.1,11,2.1,11,2.1z"/>
	<path class="st4" d="M14.4,2.4c0,0,0,0.1,0,0.1c0,0-0.1-0.1-0.1-0.1C14.3,2.4,14.4,2.4,14.4,2.4z"/>
	<polygon class="st15" points="15.4,3.7 15.4,3.7 15.4,3.6 15.4,3.6 15.4,3.6 	"/>
	<path class="st5" d="M7.2,27.8c0.1,0.7,0.2,1.3,0.5,2c-0.6-0.2-0.5-0.8-0.9-0.9c0,0,0,0,0,0c0-0.2,0-0.3,0-0.5
		C7,28.3,7,28.2,6.7,28.1c0-0.1,0-0.2,0-0.3C6.9,27.8,7,27.8,7.2,27.8z"/>
	<path class="st3" d="M7.2,27.8c-0.2,0-0.3,0-0.5,0c0-0.3,0-0.5,0-0.8c0-0.1,0.1-0.2,0.2-0.2c0.1,0,0.1,0.1,0.1,0.2
		C7.1,27.3,7.2,27.5,7.2,27.8z"/>
	<path class="st12" d="M7.4,27.1c0.3,0.3,0.1,0.8,0.4,1.1c0,0.3,0.1,0.5,0.1,0.8C7.5,28.4,7.4,27.7,7.4,27.1z"/>
	<path class="st3" d="M6.7,28.1C7,28.2,7,28.3,6.8,28.5C6.7,28.4,6.7,28.2,6.7,28.1z"/>
	<path class="st3" d="M7,32.5c0.2-0.1,0.3-0.1,0.5,0C7.3,32.5,7.2,32.5,7,32.5z"/>
	<path class="st3" d="M8.2,32.4c-0.1,0-0.3,0-0.5-0.1C8,32.2,8.1,32.3,8.2,32.4C8.2,32.4,8.2,32.4,8.2,32.4z"/>
	<path class="st1" d="M9.6,31.5c0,0,0.1,0,0.1,0C9.7,31.5,9.6,31.6,9.6,31.5z"/>
	<path class="st11" d="M10.8,20.1c0.2,0.1,0.4,0.1,0.6,0.1c0.6-0.1,0.7-0.1,0.5,0.5c-0.1,0.6-0.5,1-0.5,1.6
		c-0.4-0.2-0.1-0.8-0.6-1.1c0.1,0.5-0.2,0.9,0.3,1.3c0,0.1,0,0.2,0,0.3c-0.2,0-0.5,0.1-0.7,0.1c0-0.1,0-0.2,0-0.3
		c-0.2,0.1-0.2,0.2-0.2,0.4c-0.2,0.2-0.3,0.7-0.6,0.6c-0.3-0.1-0.3-0.6-0.3-0.9c0-0.1,0-0.2-0.1-0.4C8.9,22.8,9,23.1,9,23.5
		c0,0.2,0.1,0.4-0.2,0.4c-0.2,0.1-0.4-0.2-0.4-0.3c-0.1-0.1-0.1-0.3-0.1-0.4c0.1-0.2,0.1-0.3,0-0.5c0.2-0.3,0-0.6,0-0.9
		c0-0.8-0.2-1.7,0.6-2.3c0.4-0.2,0.6,0,0.9,0.2c0.4,0.3,0.7,0.7,0.9,1.2c0.1,0.2,0.1,0.5,0.4,0.3c0.2-0.1,0.1-0.3,0-0.5
		C10.9,20.5,10.8,20.3,10.8,20.1z"/>
	<path class="st12" d="M8.8,19.4C8,20,8.2,20.9,8.2,21.7c-0.4-0.3-0.1-0.9-0.5-1.2c0-0.1,0-0.2,0-0.4c-0.1,0,0,0.1,0,0.1
		c0.1,0.1,0.1,0,0.2,0C8,20.2,8,20.1,7.9,20C8.1,19.7,8.3,19.4,8.8,19.4z"/>
	<path class="st12" d="M9.6,17.4c0,0.1-0.1,0.1-0.1,0.2c-0.3,0.5-0.6,0.9-0.7,1.5c-0.2,0.1-0.5,0.2-0.3-0.2c0.2-0.6,0.5-1.1,0.9-1.6
		C9.5,17.3,9.6,17.4,9.6,17.4z"/>
	<path class="st15" d="M9.6,17.4c-0.1-0.1-0.2-0.1-0.2-0.2c0.5-0.6,0.8-1.3,1.5-1.7C10.7,16.3,10,16.8,9.6,17.4z"/>
	<path class="st11" d="M8.8,19.1c0.1-0.5,0.4-1,0.7-1.5c0.2,0.1,0.3,0.2,0.1,0.4c-0.3,0.3-0.4,0.7-0.5,1C9,19.1,8.9,19.1,8.8,19.1z"
		/>
	<path class="st5" d="M7.7,18.7c0,0,0.1,0,0.1,0c0.4,0.1,0.3,0.4,0.1,0.6c-0.1,0.1-0.2,0.3-0.3,0.4c-0.1,0-0.1,0-0.2,0
		C7.6,19.3,7.7,19,7.7,18.7z"/>
	<path class="st2" d="M10.5,19c0,0.1,0,0.2-0.1,0.2C10.5,19.2,10.5,19.1,10.5,19z"/>
	<path class="st2" d="M7.9,20c0,0.1,0,0.1-0.1,0.2C7.8,20.1,7.9,20.1,7.9,20z"/>
	<path class="st11" d="M10.7,19.9c0,0,0.1,0.1,0.1,0.1C10.8,20,10.7,20,10.7,19.9z"/>
	<path class="st2" d="M11,15.3c0,0-0.1,0.1-0.1,0.1C11,15.4,11,15.3,11,15.3z"/>
	<path class="st2" d="M9.8,19.3c0,0,0.1,0,0.1,0C9.9,19.3,9.9,19.3,9.8,19.3z"/>
	<path class="st13" d="M27.2,24.6C27.2,24.5,27.3,24.5,27.2,24.6c0.9,1,1.6,2,1.3,3.3c-0.1,0.4,0.5,0.5,0.5,0.9c0,0,0,0.1,0,0.1
		C29,29,29,29,29,29c-0.3,0.4-0.7,0.5-1.2,0.5c-0.4,0-0.9,0-1.3,0c-0.7,0-1-0.4-0.8-1c0.4-1.1,0.9-2.2,1.3-3.3
		C27.1,25,27.1,24.8,27.2,24.6z"/>
	<path class="st11" d="M25.3,32.4c0.1-0.1,0.1-0.1,0.2-0.1c0.5,0.2,0.9,0.6,1.5,0.5c0.1,0,0.1,0.2,0.2,0.3c-0.1,0.2-0.2,0.3-0.2,0.5
		c0-0.5-0.2-0.6-0.6-0.4c-0.4,0.2-0.7,0.1-0.9-0.2C25.8,32.7,25.4,32.6,25.3,32.4z"/>
	<path class="st8" d="M27.5,34.6C27.5,34.6,27.5,34.6,27.5,34.6c0.4-0.4-0.1-0.6-0.2-0.9c0.4-0.4,0.8-0.3,1.1,0.1
		C28.4,34.5,28.1,34.8,27.5,34.6z"/>
	<path class="st4" d="M29.4,26.4c0.3,0.2,0.4,0.6,0.4,0.9c0,0.6,0,1.2,0,1.8c0,0.2,0,0.4-0.3,0.4C29.6,28.5,29.4,27.4,29.4,26.4z"/>
	<path class="st2" d="M29,29c0-0.1,0-0.1,0.1-0.1c0,0,0,0,0,0C29,29,29,29,29,29z"/>
	<path class="st2" d="M10.1,23c0-0.1,0-0.3,0.2-0.4c0,0.1,0,0.2,0,0.3C10.3,23,10.2,23,10.1,23z"/>
	<path class="st2" d="M11,22.8c0-0.1,0-0.2,0-0.3c0.1,0,0.2,0,0.3,0c0,0.1,0,0.2,0,0.3C11.3,22.8,11.2,22.8,11,22.8z"/>
	<path class="st2" d="M8.2,22.6c0.1,0.2,0.1,0.3,0,0.5C8.2,23,8.2,22.8,8.2,22.6z"/>
	<path class="st2" d="M8.4,24.3c-0.1,0-0.2,0-0.4,0C8.2,24.2,8.3,24.2,8.4,24.3z"/>
	<path class="st2" d="M11.4,22.9C11.4,22.9,11.4,22.9,11.4,22.9c0,0.1-0.1,0.1-0.2,0.2l0,0C11.3,23,11.3,22.9,11.4,22.9z"/>
	<path class="st11" d="M10.9,23.1c0.1,0,0.2-0.1,0.3-0.1c0,0,0,0,0,0C11.1,23.1,11,23.1,10.9,23.1L10.9,23.1z"/>
	<path class="st2" d="M9,24.3c-0.1,0.1-0.1,0.1-0.2,0C8.8,24.3,8.9,24.3,9,24.3z"/>
	<path class="st12" d="M34.4,35.3c-0.2-0.2,0.2-0.6-0.4-0.7c0.3,0.1,0.7-0.2,0.9,0.2C35,35.1,34.4,35,34.4,35.3z"/>
	<path class="st1" d="M32,37.5c0-0.1,0-0.2,0-0.2c0.2,0,0.4,0,0.6,0c0.2,0.1,0.5,0.2,0.7,0.3c0.1,0.4,0.1,0.7-0.3,0.9
		c-0.4,0-0.8,0-1.2,0c0.1-0.5,0.5-0.2,0.8-0.3c0.4-0.2,0.7-0.3,0.2-0.6c-0.1-0.1-0.2-0.1-0.3-0.1C32.3,37.5,32.2,37.5,32,37.5z"/>
	<path class="st1" d="M11.4,14.7c-0.1,0.1-0.1,0.2-0.3,0.1C11.2,14.7,11.3,14.7,11.4,14.7z"/>
	<path class="st2" d="M30.8,37.2c-0.2,0.1-0.3,0-0.4-0.1c0-0.1,0-0.1,0-0.2c0.1,0,0.2,0,0.2,0C30.7,37,30.7,37.1,30.8,37.2z"/>
	<path class="st1" d="M30.4,36.9c0,0.1,0,0.1,0,0.2c-0.1,0-0.2-0.1-0.1-0.2C30.3,36.9,30.4,36.9,30.4,36.9z"/>
	<path class="st1" d="M25.8,26.4c-1,1.8-1.3,3.8-0.7,5.8c-0.1,0.1-0.2,0.2-0.4,0.2c-0.3-0.9-0.4-1.8-0.4-2.7c0-0.4-0.1-0.5-0.5-0.4
		c-0.3,0-0.5,0-0.8,0.2c-1,0.8-2.3,1-3.6,1c-0.7,0-1.4,0-2.1-0.1c0,0,0-0.1,0-0.1c0.6-0.1,1.3-0.1,1.9-0.1c2.5,0,4.3-1.1,5.6-2.9
		c0.2-0.3,0.4-0.6,0.7-0.9C25.6,26.4,25.7,26.4,25.8,26.4z M23.8,28.9c0.2,0,0.4,0,0.5,0c0.3-0.1,0.4-0.4,0.5-0.6c0,0,0-0.1-0.1-0.1
		c-0.3-0.1-0.3,0.2-0.5,0.3C24.1,28.6,24,28.7,23.8,28.9z"/>
	<path class="st1" d="M12.9,25.7c-0.2-0.4,0.2-0.2,0.3-0.2c0.9,0,1.8,0.1,2.7,0.1c0.1,0.1,0.1,0.2-0.1,0.2
		C14.8,25.8,13.8,25.9,12.9,25.7z"/>
	<path class="st1" d="M18.8,25.6c0.9,0,1.8-0.1,2.7-0.1c0.2,0.3,0,0.3-0.2,0.3c-0.8,0-1.6,0-2.4,0.1C18.7,25.8,18.7,25.7,18.8,25.6z
		"/>
	<path class="st1" d="M22.2,25.7c-0.1-0.1-0.1-0.2,0-0.2c0.4-0.1,0.8-0.2,1.2-0.1c0,0,0,0.1,0,0.1C23,25.7,22.6,25.6,22.2,25.7z"/>
	<path class="st1" d="M26.5,24.9c0.1,0.4,0.1,0.6-0.4,0.7C26.1,25.2,26.3,25,26.5,24.9z"/>
	<path class="st1" d="M12,25.5c0.3,0,0.7-0.2,0.8,0.2C12.5,25.6,12.1,26,12,25.5z"/>
	<path class="st2" d="M26.1,25.5c0.1,0.3,0.1,0.5-0.4,0.5C25.8,25.8,25.9,25.6,26.1,25.5z"/>
	<path class="st1" d="M23.5,25.5c-0.1-0.3,0.2-0.2,0.3-0.3c0.1-0.1,0.3-0.1,0.3,0.2C24,25.6,23.8,25.5,23.5,25.5z"/>
	<path class="st2" d="M17.4,30.2c0,0,0,0.1,0,0.1c-0.2-0.1-0.4-0.1-0.6-0.2C17,30.1,17.2,30.1,17.4,30.2z"/>
	<path class="st1" d="M21.7,25.5c0.1,0.1,0.5-0.2,0.4,0.2C21.9,25.6,21.5,25.9,21.7,25.5z"/>
	<path class="st2" d="M25.8,26.4c-0.1,0-0.2,0-0.2-0.1c0-0.1,0.1-0.1,0.1-0.2C25.8,26.2,25.8,26.3,25.8,26.4z"/>
	<path class="st1" d="M21.5,34.4c0-0.1,0-0.2,0-0.3c0.1-0.2-0.1-0.4,0.2-0.5c0.1,0.2,0,0.5,0.3,0.5c0.4,0,0.4-0.3,0.4-0.5
		c0,0,0,0,0-0.1c0.4,0.2,0.5,0.4,0.2,0.7C22.2,34.3,21.8,34.4,21.5,34.4z"/>
	<path class="st1" d="M22.1,32.2c0.3,0.2,0,0.3-0.1,0.4c-0.1,0.2-0.3,0.4-0.2,0.7c0,0.2,0,0.3-0.2,0.3c-0.3-0.1-0.1-0.3-0.2-0.5
		c0.1-0.3,0.1-0.6,0.4-0.9C21.9,32.2,22,32,22.1,32.2z"/>
	<path class="st2" d="M21.6,33.6c0.2,0,0.2-0.2,0.2-0.3c0.2-0.1,0.2,0.1,0.3,0.1c0,0.1-0.1,0.2,0.1,0.3c0,0,0.1-0.1,0.2-0.2
		c0,0,0,0,0,0c0,0,0,0,0,0.1c-0.1,0.2,0,0.5-0.4,0.5C21.6,34.1,21.8,33.8,21.6,33.6C21.6,33.6,21.6,33.6,21.6,33.6z"/>
	<path class="st10" d="M28.1,36.7c0.3-0.4,0.6-0.3,0.9-0.2C28.7,36.6,28.5,36.6,28.1,36.7z"/>
	<path class="st10" d="M27.8,37C27.8,37,27.8,37,27.8,37c0-0.1,0-0.2,0.1-0.3c0,0,0.1,0,0.1,0.1C28.1,36.9,28,37,27.8,37z"/>
	<path class="st2" d="M25.1,36.5c0.1-0.1,0.2-0.2,0.3-0.2C25.4,36.5,25.2,36.5,25.1,36.5C25.1,36.6,25.1,36.6,25.1,36.5z"/>
	<path class="st13" d="M10.9,23.2c0.1,0,0.1-0.1,0.2-0.1c0.1,0,0.2-0.1,0.3-0.1c0.2-0.2,0.3-0.3,0.6-0.4c0.7,0,1.3-0.3,2-0.6
		c0.2-0.1,0.5-0.2,0.7,0c0.5,0.3,0.9,0.2,1.3,0c0.4-0.2,0.9-0.1,1.4,0c0.4,0.1,0.6,0,0.7-0.3c0.2-0.5,0.9-0.7,1.4-1.1
		c0.1-0.1,0.4-0.1,0.4,0.2c-0.1,0.1-0.2,0.1-0.2,0.2c0.1,0.1,0.2,0.2,0.4,0.2c0.2,0,0.3-0.1,0.2-0.3c0.2-0.4,0.5-0.5,1-0.3
		c0.6,0.2,1.6-0.4,1.4-1c-0.1-0.3-0.2-0.7-0.4-0.9c-0.5-0.5-0.8-1.1-0.9-1.8c0-0.1-0.1-0.3,0-0.4c0.2-0.1,0.3,0,0.4,0.1
		c0.1,0.1,0.2,0.2,0.2,0.4c-0.1,0-0.3-0.4-0.3,0.1c0,0.2,0.1,0.4,0.2,0.6c0.7,0.9,1.2,1.8,1.7,2.8c0.2,0.3,0.5,0.8,0.1,1.1
		c-0.5,0.4-1,0.8-1.8,0.5c-0.7-0.2-1.4-0.5-2.2-0.3c-0.5,0.1-1,0.3-1.2,0.7c-0.3,0.5-0.7,0.6-1.3,0.5c0,0-0.1,0-0.1,0
		c-0.8,0-1.5,0-2.3,0c-0.4-0.2-0.8-0.4-1.2,0c-0.4,0.1-0.7,0.1-1.1,0.1c-0.2-0.2-0.3-0.2-0.4,0.1c-0.3,0-0.5,0-0.8,0.1
		c-0.2,0-0.3-0.1-0.4,0.1c-0.1,0-0.1,0-0.2,0C11.1,23.3,11,23.2,10.9,23.2z"/>
	<path class="st13" d="M22.6,17.5c0.3,0,0.6-0.1,0.6-0.4c0-0.4-0.1-0.8-0.5-1c-0.2-0.1-0.4-0.3-0.5-0.5c-0.3-0.5-1.3-0.8-1.9-0.6
		c-0.7,0.2-1.4,0.4-2.1,0.6c-0.3,0.1-0.7,0.1-0.8-0.3c1.4-0.1,2.7-0.3,3.9-0.8c0.2-0.1,0.4-0.2,0.5,0.1c0,0.5,0.5,0.8,0.8,1.2
		c1.7,1.6,2.7,3.5,3.4,5.6c0.1,0.2,0.2,0.3-0.1,0.5c0,0-0.1,0-0.1,0c-1-0.1-1.5-0.6-1.8-1.5C23.9,19.2,23.1,18.4,22.6,17.5z"/>
	<path class="st5" d="M18.9,24.6c-1.7-0.1-3.3,0-5,0C15.6,24.1,18.2,24.1,18.9,24.6z"/>
	<path class="st4" d="M20.4,23.5c-0.1,0.2-0.3,0.3-0.4,0.6c-0.3,0.1-0.1,0.5-0.4,0.7c-0.5-0.3-0.6-0.7-0.3-1.2
		C19.7,23.7,20,23.6,20.4,23.5L20.4,23.5z"/>
	<path class="st12" d="M23,22.4c-0.2,0.2-0.5,0.3-0.8,0.2c-0.6-0.2-1.3-0.3-1.9-0.6c0.5-0.1,1,0,1.5,0.2
		C22.2,22.4,22.6,22.4,23,22.4z"/>
	<path class="st11" d="M14,22.9c0.4-0.4,0.8-0.3,1.2,0C14.9,22.9,14.4,22.9,14,22.9z"/>
	<path class="st11" d="M12.5,23.1c0.1-0.2,0.2-0.2,0.4-0.1C12.8,23.1,12.7,23.1,12.5,23.1z"/>
	<path class="st11" d="M11.3,23.3c0.1-0.1,0.3-0.1,0.4-0.1C11.6,23.3,11.5,23.3,11.3,23.3z"/>
	<path class="st16" d="M17.5,22.9c0,0,0.1,0,0.1,0C17.6,22.9,17.6,22.9,17.5,22.9L17.5,22.9z"/>
	<path class="st2" d="M10.7,34.3c-0.1,0-0.1,0.1-0.2,0.1c-0.7-0.6-1.5-0.6-2.3-0.5c0.3-0.4,0.7-0.4,1.2-0.3c0.3,0,0.5,0.1,0.8,0.2
		C10.2,34,10.7,34,10.7,34.3z"/>
	<path class="st1" d="M10.6,23.5c0.1,0,0.3-0.2,0.4,0.1C10.8,23.7,10.6,23.9,10.6,23.5z"/>
	<path class="st1" d="M22.4,33.5c-0.1,0.1-0.2,0.2-0.2,0.2c-0.1,0-0.1-0.2-0.1-0.3C22.2,33.4,22.3,33.4,22.4,33.5z"/>
	<path class="st2" d="M32.5,37.5c0.1,0,0.2,0,0.3,0.1C32.6,37.7,32.5,37.7,32.5,37.5z"/>
	<path class="st1" d="M23.4,15.6c-0.2-0.1-0.4-0.2-0.4-0.5c0.5-0.2,0.5,0.2,0.7,0.4C23.6,15.6,23.5,15.6,23.4,15.6z"/>
	<path class="st1" d="M24.1,16.1c-0.3,0.2-0.3-0.1-0.4-0.2C24,15.6,24.1,15.8,24.1,16.1z"/>
	<path class="st2" d="M23.4,15.6c0.1,0,0.2,0,0.3,0c0,0,0.1,0.1,0.1,0.1c0,0-0.1,0.1-0.1,0.1c0.1,0.1,0.1,0,0.2,0
		c0,0.1-0.1,0.2-0.3,0.1C23.5,15.8,23.5,15.7,23.4,15.6z"/>
	<path class="st1" d="M23.9,15.7c0,0-0.1,0.1-0.2,0C23.7,15.7,23.8,15.7,23.9,15.7C23.9,15.7,23.9,15.7,23.9,15.7z"/>
	<path class="st1" d="M13.7,11.3c0.1-0.1,0.2-0.1,0.3-0.1c1.8,0.2,3.5,0,5.3-0.1c0,0.1,0.1,0,0.1,0c0.3-0.1,0.6,0,0.9-0.2
		c0.1,0,0.2,0,0.3,0c0.3,0.3-0.1,0.3-0.2,0.4c-0.5,0.1-1,0.1-1.4,0.1c0,0-0.1,0-0.1,0c-0.2,0.1-0.4,0.1-0.5,0.1
		c-0.1-0.1-0.2-0.1-0.2,0c-1,0.1-2,0.2-3,0c-0.1,0-0.2,0-0.4,0C14.3,11.4,13.9,11.8,13.7,11.3z"/>
	<path class="st2" d="M16.6,2.8c0.2,0,0.4,0,0.6-0.1c0.7,0,1.4,0,2.1,0.2c1.2,0.4,2,1,2.4,2.2c0,0.1,0,0.3,0,0.4
		c-0.3,0-0.3-0.3-0.3-0.5c-0.5-1-1.4-1.7-2.7-1.8c-0.7-0.1-1.4-0.1-2.1-0.1l0,0C16.6,3,16.6,2.9,16.6,2.8z"/>
	<path class="st2" d="M21.1,10.3c-0.3-0.5-0.9-0.7-1.5-0.7c-0.7,0-1.3,0-2.1,0c0.5-0.3,1-0.3,1.4-0.4c0.3,0,0.5,0,0.8,0
		c0,0,0.1,0,0.1,0l0.1,0c0.4,0.1,0.8,0.2,1.2,0.5c0.2,0.2,0.4,0.3,0.3,0.6C21.2,10.4,21.2,10.4,21.1,10.3
		C21.1,10.4,21.1,10.4,21.1,10.3z"/>
	<path class="st2" d="M20.8,8.3c0.3,0,0.5,0,0.8,0c0,0,0,0.1,0,0.1c-0.5,0.2-0.9,0.3-1.4,0.5c-0.1,0-0.2,0-0.2-0.1c0,0,0,0,0,0
		c0.1-0.1,0.2-0.1,0.4-0.2c0.1,0,0.1,0,0.1-0.1c0,0,0,0,0,0C20.6,8.4,20.7,8.4,20.8,8.3z"/>
	<path class="st4" d="M20.4,8.5c-0.1,0.1-0.2,0.1-0.4,0.2c-0.1,0-0.1-0.1-0.2-0.1c0.1-0.1,0.3-0.1,0.4-0.2
		C20.3,8.4,20.3,8.5,20.4,8.5z"/>
	<path class="st4" d="M20,8.7c0,0.1,0.2,0.1,0.2,0.1C20.1,9,20,9,19.9,8.9C19.8,8.8,19.9,8.8,20,8.7z"/>
	<path class="st2" d="M14.6,11.5c0.1,0,0.2,0,0.4,0C14.9,11.6,14.7,11.6,14.6,11.5z"/>
	<path class="st11" d="M20.8,8.3c-0.1,0.1-0.2,0.1-0.3,0.1c-0.1-0.1,0-0.2,0.1-0.3C20.7,8.2,20.7,8.2,20.8,8.3z"/>
	<path class="st2" d="M21.2,5.8C21.3,5.8,21.3,5.9,21.2,5.8c0.1,0.1,0.1,0.2,0.1,0.3c-0.1,0-0.2-0.1-0.3-0.1c0,0,0,0,0,0
		C21.1,6,21.2,5.9,21.2,5.8z"/>
	<path class="st2" d="M18,11.5c0.1-0.1,0.1-0.1,0.2,0C18.2,11.5,18.1,11.5,18,11.5z"/>
	<path class="st2" d="M20.6,10.9c-0.1,0-0.2,0-0.3,0c0,0,0-0.1,0-0.1C20.4,10.8,20.5,10.9,20.6,10.9z"/>
	<path class="st11" d="M19.7,9.3L19.7,9.3c-0.1,0-0.1,0-0.1,0C19.7,9.2,19.7,9.2,19.7,9.3z"/>
	<path class="st4" d="M19.6,8.7c0.1,0,0.1,0,0.2-0.1C19.7,8.6,19.6,8.7,19.6,8.7z"/>
	<path class="st11" d="M21.4,6.8c0,0,0-0.1,0-0.1C21.4,6.7,21.4,6.7,21.4,6.8C21.4,6.7,21.4,6.7,21.4,6.8z"/>
	<path class="st2" d="M18.8,11.4c0,0,0.1,0,0.1,0C18.9,11.4,18.8,11.4,18.8,11.4L18.8,11.4z"/>
	<path class="st4" d="M20.4,23.5c0,0,0.1-0.1,0.1-0.1c0,0,0,0,0,0C20.5,23.5,20.4,23.5,20.4,23.5C20.4,23.5,20.4,23.5,20.4,23.5z"/>
	<path class="st1" d="M32.1,9.9c0.1,0.1,0.1,0.1,0.2,0.2c-0.1,0.1-0.3,0.1-0.5,0.1c0-0.1,0-0.2,0-0.2C31.9,10,32,10,32.1,9.9z"/>
	<path class="st1" d="M11.4,22.5c-0.1,0-0.2,0-0.3,0c-0.5-0.3-0.2-0.8-0.3-1.3c0.6,0.3,0.2,0.9,0.6,1.1
		C11.4,22.3,11.4,22.4,11.4,22.5z"/>
	<path class="st2" d="M20.5,20.8c0.1,0.2,0,0.3-0.2,0.3c-0.2,0-0.3,0-0.4-0.2c-0.1-0.1,0.1-0.2,0.2-0.2
		C20.1,20.7,20.3,20.8,20.5,20.8z"/>
	<path class="st15" d="M13.5,6.9c0-0.1,0.1-0.1,0.1-0.2C13.8,6.4,13.8,6,14.2,6c0.4,0,0.1,0.5,0.2,0.8c0,0,0,0,0,0.1
		c0.1,0.3-0.2,0.4-0.4,0.4C13.8,7.3,13.6,7.1,13.5,6.9z"/>
	<path class="st2" d="M12.8,8.2c-0.3,0-0.5,0.3-0.9,0.3C12.2,8.1,12.3,8.1,12.8,8.2z"/>
	<path class="st2" d="M15.7,8.4c0.1,0,0.2,0.1,0.3,0.2C15.8,8.6,15.8,8.5,15.7,8.4z"/>
	<path class="st2" d="M15,7.9c0.2,0,0.2,0.1,0.3,0.2C15.1,8.1,15.1,8,15,7.9z"/>
	<path class="st2" d="M11,8.4c0.1,0,0.2,0,0.3,0c0,0.1-0.1,0.2-0.2,0.2C11.1,8.5,11.1,8.4,11,8.4z"/>
	<path class="st2" d="M15.4,8.3c0.1,0,0.2,0.1,0.2,0.1C15.5,8.4,15.4,8.4,15.4,8.3z"/>
	<path class="st2" d="M9.8,8.7C9.9,8.7,9.9,8.8,9.8,8.7C9.9,8.8,9.8,8.8,9.8,8.7C9.8,8.7,9.8,8.7,9.8,8.7z"/>
	<path class="st2" d="M10.7,8.3c0-0.1,0.1,0,0.1,0C10.8,8.4,10.7,8.4,10.7,8.3L10.7,8.3z"/>
	<path class="st2" d="M14.4,6.8C14.4,6.8,14.5,6.8,14.4,6.8C14.5,6.8,14.5,6.8,14.4,6.8C14.5,6.9,14.5,6.8,14.4,6.8z"/>
	<path class="st2" d="M19.4,11c0,0.1-0.1,0.1-0.1,0C19.3,11,19.3,11,19.4,11z"/>
	<path class="st2" d="M14.8,4.7c0,0-0.1,0-0.1,0.1C14.7,4.7,14.7,4.7,14.8,4.7z"/>
	<path class="st1" d="M19.4,5.6c0.5,0.6,0.5,1.2,0,1.7c-0.5,0.5-1.2,0.6-1.9,0.5c-0.7-0.1-1.1-0.7-1.2-1.3c-0.1-0.5,0-1,0.5-1.4
		c0.7-0.5,1.7-0.4,2.5,0.2c0,0-0.1,0.1-0.1,0.1c-0.3,0-0.4,0-0.5,0.3c0,0.2,0.1,0.4,0.3,0.5C19.5,6.3,19.3,5.8,19.4,5.6L19.4,5.6z
		 M17.7,5.5c0-0.2-0.1-0.3-0.4-0.3c-0.3,0-0.4,0.2-0.4,0.4c0,0.2,0.1,0.3,0.3,0.3C17.5,5.9,17.7,5.8,17.7,5.5z"/>
	<path class="st2" d="M15.7,3.9c0.8-0.6,1.8-0.5,2.7-0.3c0.1,0,0.4,0,0.3,0.3c-0.9-0.1-1.9-0.3-2.7,0.2C15.8,4.2,15.7,4.1,15.7,3.9z
		"/>
	<path class="st1" d="M21.2,5.8C21.2,5.9,21.1,6,21,6c-0.1-0.2-0.2-0.5-0.3-0.7c0-0.2,0.2-0.3,0.3-0.1C21.1,5.4,21.2,5.6,21.2,5.8z"
		/>
	<path class="st1" d="M20.1,4.3c0.2,0.2,0.6,0.2,0.4,0.6c-0.2-0.1-0.3-0.2-0.5-0.4C20,4.5,20,4.4,20.1,4.3z"/>
	<path class="st2" d="M20.1,4.3C20,4.4,20,4.5,20,4.6c-0.1-0.1-0.2-0.2-0.4-0.2l0,0c0.1,0,0.1-0.1,0.1-0.2c0,0,0,0,0,0
		C19.9,4.2,20,4.3,20.1,4.3z"/>
	<path class="st1" d="M19.1,4c0.1-0.3,0.3-0.1,0.4,0c0,0.1,0,0.2,0,0.3C19.3,4.2,19.2,4.2,19.1,4z"/>
	<path class="st2" d="M19.5,4.3c0-0.1,0-0.2,0-0.3c0.1,0,0.2,0.1,0.3,0.1c0,0,0,0,0,0c-0.1,0-0.1,0.1-0.1,0.2l0,0
		C19.6,4.3,19.5,4.3,19.5,4.3z"/>
	<path class="st1" d="M19.2,5.3c0,0,0.1,0.1,0.1,0.1c0,0,0,0-0.1,0C19.2,5.5,19.1,5.4,19.2,5.3C19.1,5.4,19.1,5.4,19.2,5.3z"/>
	<path class="st1" d="M19.3,5.5c0,0.1,0.1,0.1,0.1,0.2c0,0,0,0,0,0C19.2,5.7,19.3,5.6,19.3,5.5C19.3,5.5,19.3,5.5,19.3,5.5z"/>
	<path class="st9" d="M10.9,5.6c-0.2,0-0.3-0.1-0.3-0.3c0-0.2,0.1-0.4,0.4-0.4c0.2,0,0.3,0.2,0.3,0.3C11.2,5.4,11.1,5.6,10.9,5.6z"
		/>
	<path class="st11" d="M20.4,8.5c0,0-0.1-0.1-0.1-0.1c0.1,0,0.2-0.1,0.3,0C20.5,8.5,20.4,8.5,20.4,8.5z"/>
	<path class="st1" d="M20.6,4.8C20.7,4.8,20.7,4.8,20.6,4.8C20.7,4.9,20.7,4.9,20.6,4.8C20.7,4.9,20.6,4.9,20.6,4.8
		C20.6,4.9,20.6,4.9,20.6,4.8z"/>
	<polygon class="st2" points="16.6,3.1 16.6,3.1 16.6,3.1 	"/>
	<path class="st3" d="M23.8,28.9c0.2-0.2,0.2-0.4,0.4-0.4c0.2-0.1,0.2-0.4,0.5-0.3c0,0,0.1,0.1,0.1,0.1c-0.1,0.3-0.1,0.5-0.5,0.6
		C24.2,28.9,24.1,28.9,23.8,28.9z"/>
	<path class="st9" d="M19.2,5.5c0,0.1,0,0.2,0.1,0.1c-0.1,0.2,0.1,0.7-0.5,0.6c-0.2-0.1-0.3-0.2-0.3-0.5c0-0.3,0.2-0.3,0.5-0.3
		C19.1,5.4,19.2,5.5,19.2,5.5z"/>
	<path class="st9" d="M17.7,5.5c0,0.3-0.2,0.4-0.4,0.4c-0.2,0-0.3-0.2-0.3-0.3c0-0.2,0.1-0.4,0.4-0.4C17.5,5.2,17.7,5.3,17.7,5.5z"
		/>
	<path class="st1" d="M19.6,4.3c0-0.1,0-0.1,0.1-0.2C19.7,4.2,19.7,4.3,19.6,4.3z"/>
</g>
</svg>
